<svg width="171" height="169" viewBox="0 0 171 169" fill="none" xmlns="http://www.w3.org/2000/svg">
<g id="Group">
<path id="Vector" d="M50.8413 122.545C48.0373 121.222 45.1255 119.616 42.2725 118.712C38.9833 117.622 36.1057 115.423 33.0713 113.359C30.7525 111.802 28.2133 110.624 26.223 108.97C23.6885 106.848 20.5855 105.972 18.3352 103.227C15.7124 100.053 11.9575 98.4282 8.8152 96.0824C8.19262 95.6833 7.49165 95.3525 6.93276 94.71C4.89825 92.5293 3.57941 90.8547 6.03983 89.0909C9.69126 86.4792 11.617 82.3587 13.4497 78.1311C14.0034 76.7089 14.6355 75.2185 15.3608 73.8353C16.7329 71.1369 19.4485 71.4085 21.743 74.6799C25.3857 79.9764 30.0625 84.5616 34.8521 88.4845C39.7347 92.5144 44.74 97.002 50.2548 99.5416C52.7941 100.719 55.348 102.072 57.9657 103.181C61.0196 104.475 64.1373 105.525 67.2059 106.994C72.6276 109.427 75.9168 110.516 81.0048 110.982C82.3626 111.117 83.7499 111.604 85.0293 111.808C89.1321 112.566 92.7593 111.668 96.3228 111.014C100.543 110.165 104.871 109.598 108.783 108.077C115.292 105.425 121.212 101.78 126.015 96.8504C127.255 95.5837 128.123 93.8887 129.176 92.4079C131.426 89.1346 133.754 85.7931 136.082 82.4515C134.356 80.9427 132.959 79.3363 131.214 78.5969C129.204 77.7115 128.434 75.5596 126.958 74.0214C126.306 73.2718 126.934 72.726 127.419 72.492C135.041 69.0606 142.677 65.8045 150.392 62.4801C150.549 62.3437 150.72 62.3825 150.877 62.2461C151.862 61.9535 153.068 61.281 154 62.352C155.039 63.7053 156.671 65.107 156.505 67.1329C156.064 70.9021 156.746 75.0118 156.914 79.0048C157.14 83.699 157.459 88.5001 156.827 92.9999C156.553 94.7433 155.568 95.036 153.793 93.946C151.832 92.6418 149.778 91.2305 147.803 89.751C145.562 88.1255 145.312 88.1548 144.224 90.2297C142.299 94.3502 140.466 98.5777 137.731 102.085C135.908 104.423 133.913 106.723 131.732 108.808C129.63 110.825 128.165 113.416 125.317 114.576C121.416 120.226 114.662 121.963 108.775 125.014C106.52 126.222 103.986 127.11 101.545 128.104C96.9136 130.064 91.7276 130.436 86.3553 130.594C83.0761 130.625 79.89 130.762 76.5813 130.442C74.5762 128.612 74.4978 128.681 72.1795 130.133C71.5275 129.383 71.0323 128.497 70.2381 128.059C69.9539 128.683 70.4344 129.393 70.6501 129.958C70.1649 130.192 69.6012 130.494 68.9787 130.095C68.4198 129.453 67.8266 129.404 67.3561 129.813C67.013 129.736 66.7483 129.59 66.4052 129.512C65.6747 128.83 65.2531 128.821 64.8905 129.512C64.8121 129.581 64.5621 129.61 64.469 129.503C63.2875 128.461 62.9049 126.913 62.0372 125.598C60.8708 127.742 60.6993 127.703 59.2432 125.395C59.0569 125.181 58.8558 124.792 58.7626 124.684C57.7185 124.276 57.0717 125.591 55.8755 124.374C54.292 122.553 52.5422 122.759 50.8413 122.545ZM65.9 127.506C66.0568 127.369 66.1989 127.058 65.8411 126.805C65.4832 126.551 65.0323 126.191 64.797 126.396C64.3902 126.562 64.6843 127.058 64.9638 127.38C65.2432 127.701 65.5716 127.603 65.9 127.506Z" fill="#9DB56B"/>
<path id="Vector_2" d="M50.8413 122.546C52.5275 122.584 54.2921 122.554 55.9392 124.131C57.2286 125.455 57.7823 124.033 58.8264 124.441C59.0127 124.656 59.1205 124.938 59.3068 125.152C60.9345 127.499 61.1061 127.537 62.1008 125.355C62.9686 126.67 63.3513 128.218 64.5327 129.26C63.4544 129.445 62.3318 129.105 61.1945 128.589C57.768 126.867 54.1699 125.106 50.8413 122.546Z" fill="#9DB56B"/>
<path id="Vector_3" d="M72.4297 130.104C74.6548 128.544 74.8264 128.583 76.8314 130.413C75.4099 130.521 74.1258 131.262 72.4297 130.104Z" fill="#9DB56B"/>
<path id="Vector_4" d="M70.9001 129.929C70.5912 129.257 70.204 128.654 70.4882 128.03C71.2971 128.643 71.8707 129.461 72.4295 130.104C71.9443 130.338 71.5227 130.328 70.9001 129.929Z" fill="#9DB56B"/>
<path id="Vector_5" d="M67.513 129.677C67.9836 129.268 68.5767 129.317 69.1356 129.959C68.6651 130.368 68.1651 130.427 67.513 129.677Z" fill="#9DB56B"/>
<path id="Vector_6" d="M65.0476 129.376C65.3318 128.753 65.925 128.802 66.5623 129.376C66.2634 129.824 65.7633 129.883 65.0476 129.376Z" fill="#9DB56B"/>
<path id="Vector_7" d="M65.9001 127.506C65.6649 127.711 65.2434 127.701 64.8708 127.273C64.5913 126.951 64.2972 126.455 64.704 126.289C65.0324 126.192 65.3902 126.445 65.7481 126.698C66.1991 127.058 66.0422 127.194 65.9001 127.506Z" fill="#9DB56B"/>
</g>
</svg>
