<svg width="55" height="115" viewBox="0 0 55 115" fill="none" xmlns="http://www.w3.org/2000/svg">
<path id="Vector" d="M14.9807 68.757C15.7932 70.7487 14.8294 72.4375 14.0727 74.0865C12.2247 77.8784 12.1927 82.1804 10.0978 85.8051C11.7865 86.7691 13.1565 86.0761 14.3593 85.6301C22.4441 83.0017 30.2821 80.206 36.3676 73.881C39.7848 70.4317 42.6683 66.4407 42.9551 61.2306C43.1065 57.5501 43.0269 57.1357 39.546 58.0197C34.8225 59.1427 30.1071 59.1902 25.065 58.6561C20.0229 58.122 17.028 54.8317 13.6587 51.8281C12.3842 50.7844 12.44 48.8405 12.3285 47.1436C12.5595 38.2928 21.0905 31.2829 30.1789 32.7573C34.3926 33.4507 38.9807 33.8573 41.7207 38.0558C42.2942 38.8047 42.9952 39.0995 43.9908 38.6933C44.7794 38.3269 44.7873 37.2514 44.8351 36.3831C44.2139 30.918 43.0112 25.7795 40.1915 21.1667C37.3718 16.5539 34.5919 12.1482 31.2306 8.06906C30.6571 7.32017 30.1234 6.77849 29.4225 6.48368C27.3595 5.80639 27.0011 3.94211 27.7578 2.29309C28.5145 0.644068 30.0917 -0.0886981 32.0751 0.174332C34.9665 0.692354 37.7304 1.66453 39.658 3.87139C46.8745 12.3642 53.0955 21.2632 54.4574 32.8147C54.9592 37.6584 54.3457 42.2869 52.1233 46.3656C50.9922 48.3014 50.6498 49.8708 51.7092 52.0298C55.4528 60.3312 51.2708 72.0894 45.1932 77.339C43.7355 78.6932 42.3177 80.2545 41.1069 81.7761C37.7296 85.4325 33.2053 87.5911 28.8483 89.5027C24.077 91.494 19.0587 93.3181 12.8935 93.6443C14.9087 95.1899 16.2231 96.4408 17.6648 97.2376C22.6909 99.9226 26.2992 104.169 30.4093 107.675C32.998 109.969 32.3608 112.24 29.1268 113.291C26.5142 114.223 23.8219 114.74 21.3606 111.992C18.0789 108.327 14.2157 104.989 10.8942 101.117C8.92678 98.7027 5.87606 97.3562 3.367 95.4759C-0.41652 92.5519 -0.623624 92.5917 0.857976 88.0111C2.04485 84.1314 2.11659 80.0367 2.84944 76.0296C3.41502 72.2695 4.4745 68.8439 7.14292 65.9682C10.1618 66.0322 12.846 66.59 14.9807 68.757ZM31.3975 52.4984C34.2969 51.9409 36.7024 51.0489 37.5866 48.9458C38.5982 46.3886 36.1289 44.7154 34.6952 42.8432C34.3686 42.2616 33.6677 41.9669 32.9667 41.6721C29.3425 39.5767 25.4076 40.3332 23.026 43.5834C21.1461 46.0927 21.7436 49.1997 24.627 50.7932C26.8493 52.299 29.1593 53.1435 31.3975 52.4984Z" fill="#FAA57B"/>
</svg>
