<svg width="43" height="101" viewBox="0 0 43 101" fill="none" xmlns="http://www.w3.org/2000/svg">
<path id="Vector" d="M18.2679 2.91703C18.9922 0.181798 20.6014 -0.367551 23.1786 0.217679C33.0127 2.14014 40.934 11.6542 42.4646 21.7192C43.7619 30.4541 41.7472 38.7993 36.9783 46.1221C35.8813 47.6853 34.9239 49.0903 35.9482 51.118C38.8816 57.3592 37.6475 63.8621 35.7805 69.8071C33.4493 77.8733 29.9086 85.7169 22.2918 90.5289C21.8547 90.7057 21.5945 91.3197 21.4738 91.7756C22.777 93.4869 24.8608 93.356 26.4054 94.1555C27.7919 94.8156 29.5968 95.001 29.1327 97.1222C28.6498 98.9457 27.3946 100.369 25.3296 100.798C24.4365 100.854 23.6831 100.752 22.9295 100.65C18.8451 99.8605 15.0584 99.0525 11.1135 98.1049C7.32682 97.2968 6.35869 96.1622 7.02674 92.5339C7.6948 88.9056 7.43236 84.7381 10.2217 81.5743C11.0585 80.6251 11.7371 79.5364 13.1235 80.1964C14.3518 80.717 14.4269 81.9077 14.3624 83.2566C14.1772 85.0614 14.1501 87.0057 14.1419 89.2477C19.4627 88.3157 23.1451 85.0958 25.72 80.8994C31.1862 72.7857 33.0884 62.6543 30.4339 56.0967C28.0337 55.9486 26.3413 57.5494 24.6302 58.8524C20.0548 62.1284 11.8778 62.7915 6.69417 58.7837C4.33967 56.989 2.84069 54.5429 1.20227 52.255C0.0572542 50.6832 0.223755 48.5806 0.567158 46.9153C1.16022 42.0963 7.37176 36.3266 12.2742 35.8692C18.5255 35.4765 23.7361 37.5401 28.6033 41.2689C32.9959 44.5792 34.1867 44.5044 35.7935 39.1734C39.4525 26.0926 37.485 16.2043 25.4148 7.2497C23.0603 5.45503 20.6036 4.41401 18.2679 2.91703ZM9.10043 51.9081C14.1634 56.3718 20.7498 56.5557 26.0038 52.191C27.2778 51.065 28.0959 49.8182 26.5137 48.4233C21.8879 43.7827 16.5004 41.2821 9.8306 42.1494C6.27714 42.6715 4.81794 45.6023 6.37314 48.9415C7.0435 50.0948 7.99291 50.9317 9.10043 51.9081Z" fill="#FAA57B"/>
</svg>
