<svg width="29" height="48" viewBox="0 0 29 48" fill="none" xmlns="http://www.w3.org/2000/svg">
<path id="Vector" d="M15.2574 12.5524C16.307 9.56288 17.0568 7.17133 17.9565 4.63028C19.306 0.893441 23.5047 -0.900314 27.1035 0.444948C27.8532 0.743895 28.1531 1.49132 28.3031 2.08921C28.7529 3.88289 29.2028 5.67659 28.9029 7.61975C28.0032 13.2997 27.4033 18.8302 25.7539 24.3607C23.8045 30.6386 21.1055 36.4681 18.4064 42.447C17.9565 43.4934 17.5066 44.6891 17.2067 45.586C16.6069 47.3796 15.4074 47.8281 13.9079 47.9776C12.4084 48.1271 11.2088 47.5291 10.3091 46.1839C8.65961 43.7923 7.60993 41.2512 6.71023 38.4112C4.46098 30.9376 1.46205 23.6134 0.412399 15.6913C-0.0374509 11.9544 -0.337424 8.06815 0.712226 4.33131C1.61193 1.34184 2.36168 0.743968 5.21073 0.893441C6.71023 1.04291 8.35971 0.295511 9.55931 1.79025C11.5087 4.18182 14.2078 5.9755 14.6576 9.26392C14.8076 10.4597 14.9575 11.2071 15.2574 12.5524Z" fill="#FAA57B"/>
</svg>
