<svg width="118" height="123" viewBox="0 0 118 123" fill="none" xmlns="http://www.w3.org/2000/svg">
<g id="Group">
<path id="Vector" d="M16.7173 26.5354C17.5677 21.7545 19.6992 17.0434 23.6371 12.9513C25.0796 11.3281 26.9559 10.6661 28.6723 9.75234C31.8533 8.08475 35.0802 6.21129 38.9009 5.55084C46.1305 4.13809 51.756 6.04133 57.3561 10.9645C61.1275 14.3992 64.1437 18.3137 66.8621 22.5941C68.781 25.6155 68.9868 25.6614 71.802 23.6961C77.2267 19.7196 83.2894 18.6949 89.9458 18.8832C97.6773 19.0951 103.003 23.3089 107.299 29.2376C111.754 35.4182 112.8 42.351 111.353 49.8081C110.343 54.3371 109.538 58.9121 107.087 63.1197C103.559 69.2482 97.9744 72.9729 93.1213 77.293C88.7717 81.2933 83.5307 84.4464 79.7067 88.9961C79.409 89.3619 79.1113 89.7277 78.6078 90.0476C72.7034 93.2687 67.8044 97.7948 63.0652 102.573C60.8675 104.676 58.3499 106.275 56.358 108.424C54.366 110.573 51.003 111.119 48.0516 111.758C46.2671 112.008 44.6663 111.435 44.7598 109.078C44.8295 107.797 44.8993 106.516 43.5044 105.989C40.0971 104.796 38.8875 101.501 37.2884 98.9833C31.7138 91.0402 26.9403 82.4115 23.5856 73.2348C21.6003 67.6052 19.4092 61.9297 17.9275 55.9803C15.0762 46.4837 14.421 36.8286 16.7173 26.5354ZM100.85 53.3002C101.058 51.4015 101.677 49.5945 101.633 47.8558C101.772 45.2935 101.66 42.8913 101.594 40.2831C101.507 34.861 92.7306 25.7716 87.3093 25.8589C82.5513 25.878 79.1865 28.369 75.2503 30.5164C72.0233 32.3899 71.0606 34.7685 71.5149 38.5437C72.2193 44.1036 72.1003 49.4798 71.4779 55.1759C70.556 63.1825 66.2064 67.1827 57.9476 68.3658C50.3522 69.4809 43.4491 63.6187 45.4238 54.7665C46.2046 51.2667 47.0312 47.5612 49.8243 44.7265C52.3657 42.0518 54.5414 39.0794 57.0368 36.6105C60.6311 33.0901 60.8608 32.0609 58.3023 28.0323C55.4698 23.2944 52.8433 18.6022 48.1567 15.3956C44.979 13.1739 41.8916 12.4852 38.6425 13.4893C33.2654 15.3153 28.8936 18.4461 27.1042 24.5303C24.5119 33.2448 24.4814 42.0985 25.7319 51.0219C26.8463 58.6183 29.5393 65.9185 32.484 73.0588C36.6162 82.625 41.5036 91.7114 47.6039 100.204C49.4088 102.768 50.6439 103.043 52.6817 100.688C57.1929 94.9952 63.9665 91.7519 68.9574 86.8142C73.3989 82.4022 79.4173 79.6388 83.5389 74.7233C84.9814 73.1001 86.7896 71.7746 88.392 70.4031C94.2981 65.2374 99.6088 60.8032 100.85 53.3002ZM62.0416 42.2653C58.1258 47.2267 55.103 51.0908 54.5724 56.3752C54.4108 58.0681 54.7987 59.2351 56.5593 60.0601C57.9083 60.7933 59.327 60.2453 60.38 59.3997C61.1812 58.7139 61.4108 57.6846 61.6404 56.6552C62.3531 52.492 62.9059 48.077 62.0416 42.2653Z" fill="#E56D6A"/>
<path id="Vector_2" d="M100.85 53.2998C99.403 60.7569 94.0924 65.191 88.8276 69.4193C87.0193 70.7448 85.4168 72.1162 83.9744 73.7394C79.8527 78.6549 73.8802 81.2125 69.3929 85.8304C64.356 90.9739 57.6283 94.0114 53.1172 99.7045C51.0334 102.265 50.0041 102.036 48.0393 99.2201C41.939 90.7276 37.0516 81.6412 32.9195 72.0749C29.723 65.0946 27.2359 57.8404 26.1674 50.0381C24.7111 41.0688 24.9473 32.2609 27.5396 23.5464C29.2831 17.6682 33.7008 14.3315 39.0779 12.5055C42.327 11.5014 45.4144 12.1901 48.5921 14.4118C53.4845 17.6643 55.8593 22.5164 58.7377 27.0485C61.2962 31.077 60.8608 32.0604 57.4723 35.6267C54.931 38.3014 52.7553 41.2739 50.2599 43.7427C47.6726 46.6233 46.6401 50.2829 45.8594 53.7826C43.8846 62.6349 50.7877 68.497 58.383 67.382C66.6418 66.1988 70.9914 62.1986 71.9133 54.192C72.4898 48.7018 72.6547 43.1198 71.9503 37.5599C71.4501 33.9905 72.4589 31.406 75.6858 29.5326C79.6221 27.3851 82.9867 24.8942 87.7447 24.875C93.1201 24.9936 101.896 34.083 102.029 39.2993C102.096 41.9075 102.208 44.3097 102.068 46.8719C101.631 49.8 101.218 51.6528 100.85 53.2998Z" fill="#F2BDAF"/>
<path id="Vector_3" d="M62.0416 42.2652C62.9059 48.0769 62.399 52.2862 61.5945 56.8611C61.3648 57.8904 61.1352 58.9197 60.334 59.6054C59.2811 60.4511 58.1141 60.8391 56.5134 60.2659C54.9586 59.4868 54.3649 58.2738 54.5264 56.581C55.103 51.0907 58.1258 47.2267 62.0416 42.2652Z" fill="#F2BDAF"/>
</g>
</svg>
