<svg width="73" height="64" viewBox="0 0 73 64" fill="none" xmlns="http://www.w3.org/2000/svg">
<g id="Group">
<path id="Vector" d="M21.2279 2.24122C23.5107 2.91529 25.9767 3.2057 27.9548 4.34401C31.2654 6.17381 34.4337 8.18518 36.9518 11.3271C38.281 13.0702 39.5693 15.0154 41.0201 16.6779C41.8868 17.5905 41.5379 19.3084 42.9319 19.6968C44.0228 20.0235 45.0569 19.0761 46.2504 18.8976C49.4268 18.2801 52.4027 17.0957 55.538 16.6803C60.0894 16.0263 64.213 16.4429 67.5993 19.9717C69.6958 22.081 70.0526 24.4684 68.8717 27.1747C66.8557 31.9211 63.1457 35.1661 59.1736 38.1474C54.3506 41.6924 49.4472 45.1158 44.4032 48.195C40.919 50.3284 37.5342 53.008 33.2653 53.8246C32.6181 53.9036 32.1918 54.4483 31.685 54.8715C29.2522 57.008 26.7058 56.596 24.7119 53.9814C23.0401 51.8531 21.2261 49.9063 19.6758 47.6975C17.884 45.1239 15.9706 42.6309 14.6239 39.9373C11.6292 33.9627 9.54531 27.6471 8.35184 21.0914C7.89402 18.6835 7.75984 16.2362 7.74722 13.7083C7.73461 11.1804 8.48916 9.01876 9.4664 6.79713C9.81214 6.1308 10.0569 5.44396 10.7657 5.06181C13.9673 2.76585 16.6212 1.09517 21.2279 2.24122ZM44.1128 23.7246C44.2912 24.9183 44.3685 26.0914 44.5674 27.184C44.9842 29.794 44.2091 32.0567 42.9288 34.2167C42.4409 35.0647 41.691 35.6489 40.6585 36.0705C37.3385 37.3954 34.1258 36.6377 31.543 34.8505C28.7787 32.9212 27.3137 29.2566 30.7205 25.9501C32.424 24.2968 34.47 23.0288 36.6565 22.105C38.0332 21.5428 38.2163 21.1591 37.6132 19.9844C36.4876 17.7566 35.4425 15.6504 33.8306 13.7447C31.5336 11.0685 29.1956 8.59442 25.6608 7.35041C23.3985 6.57528 21.4 5.53804 18.8109 5.85397C15.2304 6.38944 13.2648 7.77904 12.5465 11.3159C11.9718 14.1454 12.4486 16.978 12.8038 19.8911C13.0974 23.1074 14.1599 26.1642 15.1213 29.2005C15.9028 31.5688 16.7647 34.0587 18.0119 36.206C20.3847 40.5811 22.7985 44.7542 25.9007 48.6461C27.492 50.6528 27.7746 50.8155 30.2232 50.1553C30.6684 50.0353 31.1341 49.8142 31.5793 49.6942C36.1133 48.0897 39.9433 45.29 44.0148 42.8551C47.6206 40.6412 51.0859 38.0831 54.5306 35.6261C57.246 33.6522 59.5983 31.3942 61.769 28.9941C62.7226 27.9251 63.5152 26.613 64.2067 25.2803C65.4886 22.5944 62.7668 19.9372 60.4414 19.991C56.4172 20.1207 52.5526 21.0194 48.7274 22.2417C47.3507 22.8039 45.8526 23.4466 44.1128 23.7246ZM39.5566 25.9559C37.8169 26.2339 36.3992 26.9982 35.0415 27.9851C33.8053 28.8915 33.1739 30.4468 33.6159 31.3783C34.219 32.553 35.3698 33.1024 36.6233 33.1465C38.0789 33.2317 39.0719 32.4864 39.5014 30.8901C39.9308 29.2938 40.3602 27.6974 39.5566 25.9559Z" fill="#FAA57B"/>
<path id="Vector_2" d="M44.1128 23.7244C45.8525 23.4464 47.3506 22.8037 48.9294 22.2826C52.7546 21.0603 56.6194 20.1617 60.6435 20.0319C62.8679 19.9576 65.6906 22.6353 64.4087 25.3212C63.7172 26.6538 63.0257 27.9865 61.9711 29.035C59.8004 31.4351 57.3471 33.6726 54.7327 35.667C51.2675 38.2251 47.8226 40.6821 44.2168 42.8959C40.1453 45.3309 36.2143 48.1101 31.7813 49.7351C31.3155 49.9561 30.8704 50.0762 30.4252 50.1962C27.8756 50.8358 27.694 50.6937 26.1027 48.687C23.0005 44.7951 20.5061 40.5004 18.2139 36.2469C16.9872 33.9986 16.1048 31.6097 15.3233 29.2413C14.3619 26.2051 13.2994 23.1483 13.0058 19.932C12.7311 17.1404 12.1533 14.2873 12.7485 11.3568C13.4463 7.92098 15.4323 6.43033 19.0129 5.89486C21.6225 5.47787 23.6007 6.61619 25.8629 7.39132C29.3977 8.63533 31.7357 11.1094 34.0327 13.7856C35.6446 15.6913 36.7907 17.818 37.8152 20.0253C38.4183 21.2 38.1341 21.5632 36.8585 22.1459C34.672 23.0697 32.6466 24.2367 30.9227 25.991C27.5158 29.2975 28.9808 32.9621 31.7451 34.8914C34.4289 36.6992 37.5405 37.4363 40.8605 36.1114C41.893 35.6898 42.5214 35.1861 43.1307 34.2576C44.4111 32.0976 45.2872 29.8554 44.7694 27.2249C44.3684 26.0913 44.2706 25.0192 44.1128 23.7244Z" fill="#FAC95D"/>
<path id="Vector_3" d="M39.5566 25.9557C40.3397 27.7982 39.9102 29.3946 39.5819 31.0115C39.1524 32.6078 38.1799 33.252 36.7038 33.2679C35.3493 33.2032 34.2995 32.6744 33.6964 31.4997C33.1533 30.5476 33.8858 29.0128 35.122 28.1064C36.3991 26.9979 37.8169 26.2337 39.5566 25.9557Z" fill="#FAC95D"/>
</g>
</svg>
