<svg width="109" height="116" viewBox="0 0 109 116" fill="none" xmlns="http://www.w3.org/2000/svg">
<g id="Group">
<path id="Vector" d="M67.6288 68.2266C64.6714 70.9144 62.6393 74.377 60.4981 77.6953C57.709 81.9566 54.3394 85.7495 51.0788 89.6868C48.8992 92.3539 47.0644 95.3273 44.7757 97.8501C42.4695 100.5 40.7436 103.617 38.0926 105.96C36.1632 107.758 32.7252 107.408 30.7834 105.588C27.1708 101.855 24.3889 97.7221 21.7691 93.353C18.9664 88.4419 16.7236 83.2211 14.625 77.8914C11.3416 69.9424 9.39564 61.6632 7.99175 53.2011C7.34588 49.4946 7.71358 45.9292 8.47888 42.2901C9.24418 38.651 11.4061 36.1106 14.676 34.8871C18.0903 33.5545 21.6342 33.1441 25.2759 34.8139C31.1096 37.435 34.6163 41.9276 37.475 47.3633C37.584 47.5076 37.693 47.652 38.0025 48.2117C40.2174 45.2913 41.5984 41.8671 44.6294 39.577C47.5162 37.3959 50.6034 35.6302 54.1827 34.9664C56.896 34.957 59.518 34.6765 62.3081 35.9693C64.3735 36.9029 66.0588 37.7836 67.2051 39.7516C67.5146 40.3113 68.095 40.7797 68.5311 41.3571C69.53 42.5296 70.3847 43.8111 70.6973 45.2755C71.6142 48.8906 71.7356 52.6533 71.3857 56.0919C71.0565 60.3085 69.5872 64.3662 67.6288 68.2266Z" fill="#9DB56B"/>
<path id="Vector_2" d="M67.9199 68.2276C69.8783 64.3672 71.2209 60.2918 71.8035 56.1106C72.1711 52.5453 72.0497 48.7826 71.1151 45.2942C70.6759 43.8122 69.948 42.5483 68.9491 41.3758C68.513 40.7984 67.9324 40.33 67.623 39.7702C66.4766 37.8022 64.7913 36.9216 62.726 35.988C59.9358 34.6951 57.3138 34.9757 54.6005 34.9851C54.4998 32.0003 54.1634 28.8535 54.3161 25.904C54.6598 20.6562 55.9639 15.9297 59.4041 11.63C62.9887 7.22117 71.2169 6.55929 74.3352 13.8394C75.7028 17.0007 77.197 20.1797 78.7089 23.2319C79.0184 23.7917 79.1658 24.5872 79.8906 24.9465C80.5417 24.908 80.848 24.5632 81.1544 24.2184C83.4959 21.3156 86.8364 19.5852 89.4874 17.2421C89.7761 17.024 89.9381 16.7882 90.2091 16.6968C93.9151 16.0507 97.7625 14.391 101.566 15.8251C104.392 16.8645 105.721 19.3746 106.381 22.0499C107.207 25.394 106.966 28.977 105.511 32.0034C102.457 38.1653 99.3853 44.4539 95.2442 50.0767C92.5257 53.8312 89.6628 57.6947 87.3067 61.6288C85.4718 64.6023 83.5103 67.5581 81.8935 70.8203C80.798 73.1217 78.2466 72.8954 76.5499 73.9507C76.2789 74.0421 75.6985 73.5737 75.227 73.2497C74.6642 72.6546 74.1191 71.9329 73.5386 71.4645C72.251 70.5101 71.3404 68.7041 69.1899 69.3086C68.9541 69.1466 68.3914 68.5516 67.9199 68.2276Z" fill="#FAC95D"/>
</g>
</svg>
