<svg width="65" height="63" viewBox="0 0 65 63" fill="none" xmlns="http://www.w3.org/2000/svg">
<path id="Vector" d="M0.536893 22.6843C0.0366776 18.9168 -0.539539 15.6657 0.920914 12.5566C3.5744 6.72118 10.9064 4.58319 16.6363 7.5913C20.319 9.45336 23.8392 11.3442 26.5572 14.3832C28.2032 16.1034 28.6907 16.0169 30.3817 14.2082C33.525 11.1361 36.3906 7.44269 39.9454 4.80063C46.9214 -0.292126 54.1198 -2.23882 61.574 4.82276C64.2055 7.37415 65.1932 11.0552 64.4981 14.6993C63.6981 18.6973 62.8405 22.3701 60.4626 25.9772C57.1198 30.7612 55.1164 36.4815 52.539 41.8005C50.3339 46.3829 47.9374 50.8314 45.7324 55.4138C44.6442 57.7862 42.5706 59.3275 40.8796 61.1362C40.1822 61.9304 38.9397 62.486 37.8308 62.8502C36.4257 63.4346 35.8126 61.8667 34.751 61.5519C33.6606 61.0745 32.5701 60.5972 31.4797 60.1198C24.7747 57.2846 19.3307 53.0522 14.2302 47.9206C9.95275 43.6491 7.21414 38.6018 4.28413 33.4208C2.48372 29.8838 1.30453 26.069 0.536893 22.6843Z" fill="#FAC95D"/>
</svg>
