<svg width="84" height="81" viewBox="0 0 84 81" fill="none" xmlns="http://www.w3.org/2000/svg">
<path id="Vector" d="M0.751416 16.314C1.76252 11.5645 2.46099 7.40423 5.5504 4.28692C11.2434 -1.6015 20.9851 -1.03557 26.5946 5.0391C30.2304 8.8576 33.6584 12.6411 35.6288 17.4633C36.8737 20.2388 37.4976 20.3435 40.3077 18.8903C45.4071 16.5382 50.4382 13.3191 55.8488 11.6608C66.4271 8.51739 75.9261 9.25639 81.8755 20.949C83.9507 25.1471 83.5635 30.0013 81.1663 34.0903C78.4913 38.5605 75.8863 42.6146 71.4791 45.9384C65.4066 50.266 60.5455 56.2941 55.1652 61.5934C50.5485 66.1654 45.7588 70.4943 41.1422 75.0663C38.8164 77.4563 35.6602 78.4237 32.8501 79.8769C31.6706 80.5344 29.9368 80.6711 28.446 80.6347C26.5044 80.7366 26.4377 78.5865 25.2946 77.753C24.1863 76.7114 23.078 75.6699 21.9698 74.6283C15.1125 68.3442 10.3714 60.9182 6.42892 52.5568C3.10884 45.5831 1.97342 38.3346 0.664852 30.8431C0.0120971 25.8143 0.226111 20.7172 0.751416 16.314Z" fill="#FAA57B"/>
</svg>
