<svg width="53" height="61" viewBox="0 0 53 61" fill="none" xmlns="http://www.w3.org/2000/svg">
<g id="Group">
<path id="Vector" d="M21.5852 16.4532C21.5852 15.9044 21.448 15.3556 21.9968 15.0812C23.7802 14.5323 23.7802 14.5323 24.7405 16.1788C25.4264 15.0811 25.2892 13.9834 25.5636 12.8858C25.8379 11.2393 27.7586 12.4742 28.4445 11.3765C26.7983 10.2789 26.7982 10.2789 25.2892 10.8277C24.6033 11.1021 24.3289 10.6905 24.0546 10.2789C24.0546 9.86729 24.1917 9.59289 24.1917 9.18127C24.7405 9.18127 25.2892 9.18127 25.2892 8.49524C25.2892 8.08362 24.7405 7.94641 24.329 7.8092C24.1918 6.98596 24.6033 6.4371 25.0149 5.88827C27.6214 5.33944 27.6213 5.2022 28.0329 2.59527C29.8163 1.90924 31.3253 3.1441 33.1088 3.28131C34.755 5.75103 34.4806 8.76958 35.0294 11.5137C35.7153 15.4927 36.1268 19.4717 36.5384 23.4507C36.8128 25.6461 36.8128 25.646 39.1449 25.9204C42.8489 26.3321 46.5529 26.1949 50.1198 27.0182C52.0403 27.4298 52.5891 28.3902 51.9031 30.3111C51.4916 31.2715 50.9429 32.0948 50.1198 32.6436C46.9645 34.7017 43.8092 36.897 40.5168 38.8179C38.8706 39.7784 38.1846 40.8761 38.3218 42.797C38.7333 46.9132 38.7334 51.0294 39.5565 55.1456C39.5565 55.42 39.5565 55.8316 39.5565 56.106C39.5565 57.6152 39.8308 59.2618 38.3218 60.3594C37.2243 61.0455 33.6575 60.6338 32.4228 59.5361C30.2279 57.6152 27.8958 55.9688 26.3867 53.2247C24.4661 49.7945 22.957 49.6573 19.8018 52.127C18.4299 53.2247 16.9209 54.1851 15.6862 55.2828C12.6681 57.7525 11.8451 57.8897 8.00388 56.2432C8.00388 54.8712 8.41547 53.7735 9.23858 52.6758C11.022 50.0689 11.022 46.9131 12.1194 44.0318C12.2566 43.483 12.2566 42.9341 12.531 42.3853C14.4516 38.9551 12.8054 37.0342 10.336 34.7017C7.86671 32.3692 4.7114 30.4483 3.33955 27.0182C3.06518 26.4693 2.24213 26.0577 1.69339 25.6461C1.41902 23.7252 1.69336 22.2159 3.88832 21.5299C4.29988 21.3927 4.57423 20.981 4.98579 20.7066C5.67171 20.5694 6.35764 20.5694 7.04357 20.981C8.96416 22.3531 11.0219 22.7647 13.2169 22.3531C14.8631 22.3531 16.6465 22.4903 18.2928 23.0391C18.43 23.3136 18.43 23.8623 18.5672 23.8623C19.1159 23.8623 18.8415 23.3136 18.9787 23.0391C19.2531 22.9019 19.3902 22.6275 19.6646 22.4903C21.1737 22.4903 20.6249 20.8438 21.3109 20.4322C23.0943 19.1973 22.5455 17.9625 21.5852 16.4532Z" fill="#FAC95D"/>
<path id="Vector_2" d="M28.0328 2.59526C27.6212 5.20219 27.4841 5.33943 25.0148 5.88826C25.2891 4.10457 25.8379 2.32092 27.0725 0.948846C27.4841 0.400019 28.0328 -0.286066 28.7187 0.125554C30.3649 0.948796 32.5599 0.948779 33.1086 3.2813C31.3252 3.14409 29.8162 1.90923 28.0328 2.59526C27.8956 2.32085 27.7585 2.18368 27.7585 2.45809L28.0328 2.59526Z" fill="#FAC95D"/>
<path id="Vector_3" d="M23.9172 10.2788C24.1916 10.6904 24.466 11.102 25.1519 10.8276C26.661 10.2788 26.661 10.2788 28.3072 11.3764C27.7584 12.6113 25.7007 11.2392 25.4263 12.8857C25.2891 13.9833 25.2891 15.2182 24.6032 16.1787C23.6429 14.5322 23.6429 14.5322 21.8595 15.0811C22.4082 13.4346 22.271 11.5137 23.9172 10.2788Z" fill="#FAC95D"/>
<path id="Vector_4" d="M4.98577 20.7066C4.7114 20.981 4.29987 21.3926 3.88831 21.5299C1.83053 22.2159 1.41901 23.8624 1.69338 25.6461C0.321528 24.96 0.321512 23.4507 0.0471411 22.3531C-0.227229 21.1182 0.733017 20.0206 1.96768 19.8834C2.92798 19.7461 4.16266 19.4717 4.98577 20.7066Z" fill="#FAC95D"/>
<path id="Vector_5" d="M21.5852 16.4531C22.5455 17.8252 23.2314 19.1972 21.1736 20.2949C20.4877 20.7065 21.0365 22.353 19.5275 22.353C20.0762 20.4321 20.0762 18.2368 21.5852 16.4531Z" fill="#FAC95D"/>
<path id="Vector_6" d="M13.2169 22.2158C11.0219 22.6274 8.82693 22.2158 7.04352 20.8438C9.51285 20.8438 11.7078 21.2554 13.2169 22.2158Z" fill="#FAC95D"/>
<path id="Vector_7" d="M24.3289 7.94629C24.7404 7.94629 25.1519 8.0835 25.2891 8.63232C25.2891 9.31836 24.6032 9.31836 24.1917 9.31836C24.1917 8.76953 24.1917 8.35791 24.3289 7.94629Z" fill="#FAC95D"/>
<path id="Vector_8" d="M18.8416 22.9019C18.7044 23.1763 18.9787 23.7251 18.4299 23.7251C18.2928 23.7251 18.2928 23.1763 18.1556 22.9019C18.43 22.9019 18.5672 22.9019 18.8416 22.9019Z" fill="#FAC95D"/>
<path id="Vector_9" d="M28.0329 2.59523C27.8957 2.59523 27.7586 2.45806 27.7586 2.45806C27.8958 2.32085 27.8957 2.32082 28.0329 2.59523Z" fill="#FAC95D"/>
</g>
</svg>
