<svg width="52" height="68" viewBox="0 0 52 68" fill="none" xmlns="http://www.w3.org/2000/svg">
<path id="Vector" d="M28.451 12.2485C27.9818 16.6111 30.676 21.6722 31.6343 27.0045C31.8529 28.0689 32.5667 28.5537 33.6624 28.7383C38.056 29.6108 42.46 30.6176 46.843 31.3558C48.218 31.6536 49.211 32.2517 50.3489 32.9737C52.19 34.0461 51.9448 36.0931 49.9824 36.9228C47.6274 37.9183 45.1276 38.7901 42.7517 39.5169C41.4293 39.8909 40.107 40.2648 38.9611 41.1657C38.4553 41.6109 37.7942 41.7979 37.1225 41.8505C33.6719 42.6615 33.5374 42.672 33.2631 46.0731C32.8571 51.2419 32.5958 56.5346 32.469 61.8167C32.4714 63.5739 31.6364 64.9911 31.07 66.3874C30.2664 68.2077 25.7596 67.6144 25.0749 65.7755C22.9576 59.4525 19.1466 53.9381 17.4219 47.4492C17.0585 46.261 16.3552 45.9105 15.2384 45.4573C12.7256 44.4375 10.0072 44.2448 7.61822 43.0801C6.21169 42.3792 4.95002 41.8022 3.44073 41.5148C1.24921 41.1458 0.617035 39.9786 0.830603 37.5285C0.951932 35.6265 1.57107 34.902 3.731 34.868C5.89094 34.834 8.01924 34.3969 9.99222 33.7017C11.5727 33.1723 12.7187 32.2714 13.2536 30.4721C15.4457 23.9468 17.3585 17.3081 18.8684 10.701C19.4744 8.08502 20.7733 5.68514 21.3794 3.06917C21.6666 1.55965 25.0858 0.345509 26.4923 1.04644C26.9164 1.28359 26.9478 1.68674 27.1137 2.0793C28.42 4.95102 28.1247 8.08335 28.451 12.2485Z" fill="#FACF71"/>
</svg>
