<svg width="64" height="72" viewBox="0 0 64 72" fill="none" xmlns="http://www.w3.org/2000/svg">
<g id="Group">
<path id="Vector" d="M39.8216 52.3416C39.5301 53.4394 39.2131 54.3276 39.1309 55.3999C38.7631 55.8696 38.3697 56.1298 38.4206 56.5486C38.4656 58.6679 39.4499 61.5232 37.1979 62.2218C34.9459 62.9203 34.623 65.5091 32.504 65.554C31.3418 61.2332 29.1582 57.249 27.3679 53.0045C25.6031 48.9694 22.9949 46.7365 18.1035 46.6933C13.6308 46.5992 9.44957 45.4072 5.69293 42.4639C3.8146 40.9923 3.84587 39.5012 5.81222 38.1999C9.56101 35.8322 13.0495 33.0712 17.2934 31.2808C21.1439 29.7506 22.6211 26.1716 22.5565 22.1423C22.6249 17.4595 24.0258 13.2524 24.7477 8.70269C25.0138 7.3955 25.2799 6.08837 26.4343 5.09822C27.0115 4.60315 27.3794 4.1334 28.2422 4.24106C31.224 4.30377 34.5874 7.50739 34.7342 10.4642C35.0336 14.6774 36.3543 18.5539 37.8843 22.4051C39.0524 25.0253 40.6451 25.8942 43.0243 26.2426C47.5733 26.9648 52.1224 27.6872 56.7732 29.247C59.2287 30.2236 59.3813 31.4798 58.7728 33.466C58.3228 35.008 57.2193 36.417 56.0141 36.9883C52.9755 38.2074 50.9524 40.7905 47.8884 41.8001C45.0338 42.7844 43.1437 44.7136 42.009 47.6136C40.5689 48.001 39.8332 48.9403 39.123 50.089C38.4382 51.447 38.7239 52.05 39.8216 52.3416Z" fill="#FAA57B"/>
<path id="Vector_2" d="M32.0599 65.3957C34.3882 65.3253 34.7111 62.7363 36.7537 62.0632C39.2151 61.3392 38.2308 58.4841 37.9765 56.3903C37.9256 55.9715 38.5283 55.6858 38.6867 55.2416C40.0896 58.0458 40.027 61.0283 39.3364 64.0869C38.9373 66.0476 37.9923 67.0123 35.975 67.8948C33.3297 68.8536 32.5745 67.8829 32.0599 65.3957Z" fill="#FAA57B"/>
<path id="Vector_3" d="M39.8216 52.3416C38.7239 52.05 38.4383 51.4472 38.9646 50.5334C39.4655 49.4101 40.3851 48.236 41.8505 48.058C42.054 49.7331 40.5064 50.9836 39.8216 52.3416Z" fill="#FAA57B"/>
</g>
</svg>
