<svg width="73" height="84" viewBox="0 0 73 84" fill="none" xmlns="http://www.w3.org/2000/svg">
<path id="Stars" fill-rule="evenodd" clip-rule="evenodd" d="M9.31161 32.7263C9.31161 29.8037 8.3039 27.0826 6.99396 24.4623C6.08707 22.5475 4.8779 20.7335 3.16489 19.3225C2.5603 18.8186 2.15722 18.3147 1.95569 17.5084C1.85493 17.0045 1.45191 16.7022 1.04884 16.3998C-0.261104 15.4928 -0.361882 14.989 0.847301 14.1827L0.84759 14.1825C2.5605 12.9732 4.27343 11.7639 6.08711 10.7561C7.90088 9.84909 9.11003 8.3374 10.0169 6.62412C10.823 5.1124 11.6292 3.49985 12.133 1.78657C12.5361 0.274851 14.1483 -0.430617 15.559 0.274851C16.2725 0.631674 16.3545 1.38328 16.4338 2.11035L16.4338 2.11049L16.4338 2.11063L16.4339 2.11078C16.4441 2.20498 16.4544 2.29877 16.4659 2.39123C16.6674 4.50764 16.9697 6.52324 17.5743 8.53886C18.4515 11.5608 20.7429 13.4513 22.9893 15.3047L23.2172 15.4928C24.4264 16.5006 24.4263 16.6014 23.6202 17.8108C23.5447 17.9116 23.4691 18.0249 23.3904 18.143L23.3904 18.143C23.1542 18.4973 22.8897 18.8941 22.5118 19.1209C17.9774 21.9428 15.8613 26.4779 13.9468 31.2146C13.6572 31.9387 13.6277 32.6629 13.5966 33.4244C13.5845 33.7228 13.5721 34.0269 13.5437 34.3389C13.3422 35.9514 12.6368 36.8585 11.7299 36.8585C10.7223 36.8585 9.41237 35.4474 9.31161 34.2381C9.24202 33.8205 9.26854 33.4509 9.29162 33.1295C9.30196 32.9855 9.31161 32.8511 9.31161 32.7263ZM4.17246 16.7956C4.17241 16.695 4.17018 16.5053 4.07868 16.3133C4.16368 16.4955 4.1717 16.7492 4.17246 16.7956ZM13.2414 8.94205C13.8459 9.6475 14.249 10.2522 14.5513 11.0584C14.2491 10.2521 13.846 9.64748 13.2414 8.94201L13.2414 8.94205ZM17.6999 15.3392C17.725 15.3569 17.7503 15.3745 17.7758 15.392C19.1865 16.2991 19.2872 17.0045 18.0781 18.0123C15.8612 19.9272 14.249 22.2451 12.6368 24.6638C11.8312 25.8724 11.1262 25.8732 10.6225 24.6662C11.1262 25.974 11.8312 25.9732 12.6368 24.6639C14.2491 22.2451 15.8613 19.9272 18.0781 18.0123C19.2873 17.0045 19.1866 16.2991 17.7758 15.392C17.7504 15.3745 17.7251 15.3569 17.6999 15.3392ZM42.864 44.7181C45.098 49.1868 46.8165 53.8272 46.8165 58.8115C46.8165 59.0243 46.8001 59.2534 46.7825 59.499C46.7431 60.0473 46.6979 60.6775 46.8165 61.3896C46.9884 63.4521 49.2223 65.8585 50.9408 65.8585C52.4874 65.8585 53.6903 64.3116 54.034 61.5617C54.0823 61.0295 54.1035 60.5109 54.1242 60.0021V60.002C54.1772 58.7033 54.2275 57.4683 54.7214 56.2335C57.9864 48.1555 61.5952 40.4212 69.3282 35.6088C69.9726 35.2221 70.4237 34.5453 70.8265 33.9411C70.9607 33.7397 71.0896 33.5464 71.2185 33.3746C72.5932 31.3121 72.5933 31.1401 70.5311 29.4214L70.1425 29.1006C66.3114 25.9398 62.4037 22.7158 60.9078 17.5622C59.8767 14.1247 59.3612 10.6873 59.0175 7.07801C58.9978 6.92008 58.9803 6.75989 58.9627 6.59899C58.8275 5.35904 58.6877 4.07726 57.4709 3.46873C55.065 2.26563 52.3156 3.46873 51.6282 6.04682C50.769 8.96865 49.3941 11.7187 48.0194 14.2968C46.4728 17.2186 44.4107 19.7966 41.3175 21.3435C38.2245 23.0621 35.3032 25.1245 32.382 27.1868L32.3815 27.1872C30.3194 28.5622 30.4912 29.4215 32.7252 30.9683C33.4126 31.4839 34.0999 31.9995 34.2718 32.8589C34.6155 34.2338 35.3029 35.0933 36.3339 35.9526C39.2553 38.3589 41.3174 41.4525 42.864 44.7181ZM38.0524 31.6558C38.0524 31.6558 38.0524 31.1402 37.8806 30.7965L37.8806 30.7965C38.0524 31.1401 38.0524 31.4838 38.0524 31.6557V31.6558L38.0524 31.6558ZM52.4869 45.0626C51.1124 47.1242 49.9097 47.1239 49.0506 45.0618C48.9524 44.8125 48.8518 44.5652 48.749 44.32C48.8518 44.5652 48.9523 44.8125 49.0505 45.0618C49.9096 47.2958 51.1123 47.2961 52.4869 45.0626ZM53.5185 18.2497L53.5184 18.2497L53.5172 18.2511L53.5185 18.2497ZM21.2481 79.7263C21.2481 76.8037 20.2404 74.0826 18.9305 71.4623C18.0236 69.5475 16.8144 67.7335 15.1014 66.3225C14.4968 65.8186 14.0937 65.3147 13.8922 64.5084C13.7915 64.0045 13.3884 63.7022 12.9854 63.3998C11.6754 62.4928 11.5746 61.989 12.7838 61.1827L12.7842 61.1825C14.4971 59.9732 16.21 58.7639 18.0236 57.7561C19.8374 56.8491 21.0466 55.3374 21.9534 53.6241C22.7596 52.1124 23.5657 50.4999 24.0695 48.7866C24.4726 47.2749 26.0848 46.5694 27.4955 47.2749C28.2091 47.6317 28.291 48.3833 28.3703 49.1104L28.3703 49.1105C28.3806 49.2048 28.3909 49.2987 28.4024 49.3912C28.604 51.5076 28.9062 53.5232 29.5108 55.5389C30.388 58.5608 32.6794 60.4513 34.9258 62.3047L35.1537 62.4928C36.3629 63.5006 36.3629 63.6014 35.5567 64.8108C35.4812 64.9116 35.4056 65.0249 35.3269 65.143C35.0907 65.4973 34.8262 65.8941 34.4483 66.1209C29.9139 68.9428 27.7978 73.4779 25.8833 78.2146C25.5937 78.9387 25.5642 79.6629 25.5331 80.4244C25.521 80.7227 25.5086 81.0269 25.4802 81.3389C25.2787 82.9514 24.5733 83.8585 23.6665 83.8585C22.6588 83.8585 21.3489 82.4474 21.2481 81.2381C21.1785 80.8205 21.2051 80.4509 21.2281 80.1295C21.2385 79.9855 21.2481 79.8511 21.2481 79.7263ZM16.109 63.7955C16.1089 63.695 16.1067 63.5052 16.0152 63.3133C16.1002 63.4955 16.1082 63.7491 16.109 63.7955ZM25.1779 55.9421C25.7825 56.6475 26.1855 57.2522 26.4878 58.0584C26.488 58.0588 26.4881 58.0592 26.4883 58.0597C26.4882 58.0593 26.488 58.0588 26.4879 58.0584C26.1856 57.2521 25.7825 56.6475 25.1779 55.942C25.1779 55.942 25.1779 55.942 25.1779 55.9421ZM29.6372 62.3397C29.662 62.3573 29.6871 62.3747 29.7123 62.392C30.8584 63.129 31.1399 63.7329 30.5567 64.4739C31.14 63.7328 30.8585 63.129 29.7124 62.392C29.6872 62.3747 29.6621 62.3573 29.6372 62.3397ZM30.0147 65.0123C30.0146 65.0123 30.0146 65.0123 30.0146 65.0123C27.7977 66.9272 26.1855 69.2451 24.5733 71.6638C23.7677 72.8724 23.0628 72.8732 22.559 71.6663C23.0628 72.974 23.7677 72.9732 24.5734 71.6638C26.1856 69.2451 27.7978 66.9272 30.0147 65.0123Z" fill="#FAC95D"/>
</svg>
