<svg width="81" height="64" viewBox="0 0 81 64" fill="none" xmlns="http://www.w3.org/2000/svg">
<path id="Vector" d="M0.838636 45.402C1.31106 45.9904 1.32343 47.0336 2.27352 47.2953C2.60018 47.7731 2.94438 48.379 3.27104 48.8568C3.39401 49.7543 3.79099 50.745 4.75864 51.1349C4.80612 52.4346 5.53492 52.9879 6.68871 52.8298C6.66592 53.6167 7.01011 54.2226 7.70379 54.5194C8.06037 56.1687 9.00527 57.3455 10.6139 57.6476L10.7596 57.7583C11.1917 59.0054 11.8627 60.089 13.401 59.8783C17.5931 62.8308 22.3259 64.0111 27.366 62.6675C33.6705 61.0199 39.4323 58.2711 41.0477 50.996C41.3672 49.5154 42.2294 49.136 43.803 49.1816C49.0363 49.2483 53.3879 46.6927 57.5587 43.77C57.9081 43.4609 58.3857 43.1343 58.5894 42.7145C59.8871 39.7936 62.1648 38.3059 65.2942 38.269C65.6788 38.2163 66.0458 38.0354 66.448 38.1109C69.7232 38.1847 71.8024 36.2016 73.7182 33.9798C74.3996 33.2333 75.0634 32.3586 75.7447 31.6121C79.6871 27.0226 81.4026 21.4319 80.8685 15.627C80.51 11.1042 79.2542 6.70435 77.3749 2.52057C77.0131 1.78639 76.5231 1.06978 75.7012 0.790516C74.442 0.179286 73.3585 0.850295 73.406 2.15004C73.4359 3.32157 73.4658 4.49307 73.8628 5.48369C74.9078 8.34489 74.6708 11.3818 74.9467 14.3484C75.3227 18.9993 74.912 23.6275 71.7967 27.5812C70.0091 29.7855 68.239 32.118 65.5591 33.5301C63.4852 34.598 62.4824 33.9517 62.8248 31.6842C64.0907 24.7183 61.8021 18.5005 58.5407 12.808C55.116 6.87657 55.274 8.03054 49.6333 8.80338C45.9156 9.31275 42.0787 14.6716 43.41 18.6692C44.239 20.9069 44.9398 23.1621 45.8794 25.254C47.8869 29.4202 50.7039 32.8224 54.348 35.5887C55.0768 36.142 55.2929 36.7655 55.0312 37.7157C54.0602 41.1144 51.0889 42.3053 48.2458 43.4786C46.6319 44.0916 44.5931 45.4158 43.0248 44.4551C41.1825 43.4012 42.0201 40.9353 41.7566 39.012C41.1066 34.2679 39.8332 29.7399 36.8177 25.8424C33.4932 21.5954 26.7917 22.2523 24.0031 26.6838C21.5113 30.4214 22.8726 35.5906 25.5263 38.7539C27.8709 41.5676 30.8037 43.9089 33.8297 45.9762C35.707 47.2865 35.8704 47.5254 35.3998 49.8105C35.0223 51.8216 33.9336 53.4076 32.2618 54.551C31.1783 55.222 30.0772 55.7647 28.9937 56.4356C23.7974 59.4988 18.6045 58.7735 14.6038 54.3579C13.3849 53.088 12.4049 51.6547 10.726 50.8397C9.62302 48.509 8.29884 46.4698 6.71821 44.4657C6.5601 43.3118 5.95942 42.741 4.80564 42.8991C3.65186 43.0571 2.34003 42.0612 1.30922 43.1168C0.884266 43.8282 0.202871 44.5747 0.838636 45.402ZM51.0055 21.6779C50.2643 20.0813 49.5231 18.4847 49.5335 16.6546C49.5388 15.7395 49.7074 15.0632 50.2605 14.3343C51.3844 13.0047 52.4275 12.9924 53.2969 14.5714C55.199 17.9683 56.9904 21.511 57.2785 25.5209C57.3839 26.2902 57.5069 27.1878 57.6123 27.9571C57.6826 28.4699 58.0444 29.2041 57.3104 29.566C56.7045 29.9102 56.1214 29.4676 55.7948 28.9898C53.6486 26.6714 52.1436 24.2651 51.0055 21.6779ZM29.8304 34.8985C29.0892 33.3019 28.0917 31.7405 28.8889 29.9331C29.2787 28.9653 29.7037 28.254 30.7292 28.1134C31.6266 27.9905 31.8778 28.8705 32.3326 29.3307C33.7675 31.2241 34.7247 33.4441 35.2973 35.7169C35.6891 37.6226 36.0807 39.5284 36.4549 41.3059C36.1985 41.341 36.0879 41.4868 35.8315 41.5219C34.0699 39.1507 31.1318 37.7246 29.8304 34.8985Z" fill="#FAA57B"/>
</svg>
