<svg width="341" height="171" viewBox="0 0 341 171" fill="none" xmlns="http://www.w3.org/2000/svg">
<path d="M116.479 44.1864C112.744 47.948 109.875 52.3046 106.769 56.5279C106.308 57.1544 105.939 57.9317 105.42 58.5115C104.818 59.1838 104.744 55.6696 104.737 55.4821C104.661 53.322 104.588 51.2571 105.088 49.1304C105.515 47.314 106.638 45.17 106.354 43.2716C106.156 41.9451 103.647 42.9171 103.074 43.4744C99.605 46.8526 97.4184 50.7402 96.0809 55.1754C95.2181 58.0367 95.4738 49.2438 95.8626 46.2992C97.062 37.2153 109.812 34.7174 117.688 33.9808C129.374 32.888 139.261 42.1194 144.029 51.0788" stroke="white" stroke-width="8.84645" stroke-linecap="round"/>
<path d="M162.668 62.8679C162.566 62.1896 162.715 61.6127 162.704 60.9367C162.673 59.0166 161.461 57.1201 160.69 55.4068C159.315 52.3502 157.389 49.4695 155.187 46.8894C150.47 41.3607 144.176 39.2539 137.673 36.2276C131.748 33.4703 125.209 33.6957 118.855 34.7597C111.63 35.9698 107.367 42.3548 101.56 45.7704" stroke="white" stroke-width="8.84645" stroke-linecap="round"/>
<path d="M93.9556 47.88C93.3318 41.362 100.276 36.3266 105.837 33.9359C111.717 31.4076 117.441 30.0159 123.884 30.7677C128.998 31.3643 133.848 34.3002 138.17 36.7292C141.46 38.5783 145.178 40.8409 147.709 43.5808C149.967 46.0233 151.655 48.9781 153.727 51.5713C154.66 52.739 155.206 56.8487 156.667 57.2865" stroke="white" stroke-width="8.84645" stroke-linecap="round"/>
<path d="M167.631 59.2079C167.187 56.2419 165.435 53.9432 164.04 51.3222C162.038 47.5607 159.001 44.7363 156.052 41.6649C149.489 34.8303 138.761 32.0182 129.4 30.5525C123.103 29.5666 115.279 30.6412 109.962 34.1448C108.267 35.2623 106.388 36.4335 104.924 37.8142C103.695 38.973 102.757 40.1657 101.608 41.3521C100.576 42.4169 99.8514 44.1204 98.676 44.9043" stroke="white" stroke-width="8.84645" stroke-linecap="round"/>
<path d="M92.8721 59.0563C89.282 57.4154 82.9706 59.2419 79.2827 59.7937C75.4515 60.3669 71.6121 61.579 67.9441 62.7861C60.9193 65.0976 52.7989 67.6072 47.5698 72.7816C45.4792 74.8503 43.6629 77.0085 42.044 79.4576C40.5103 81.778 41.5748 84.6766 41.5487 87.1448C41.4832 93.3234 46.1067 99.006 49.621 103.755" stroke="white" stroke-width="8.84645" stroke-linecap="round"/>
<path d="M45.1058 101.189C44.0724 100.928 42.2539 97.5514 41.6708 96.6461C40.3772 94.6378 39.6094 92.7302 38.9502 90.484C37.9887 87.2079 39.6228 83.4103 40.7766 80.312C41.9141 77.2577 43.8095 75.3431 45.8844 72.8886C48.2309 70.1129 54.3265 69.1108 57.6123 67.8943C62.598 66.0484 67.3999 64.2881 72.5979 63.0604C75.188 62.4487 77.6196 61.3664 80.2597 60.9422C83.3978 60.4379 86.5486 60.0012 89.6919 59.5309C92.4533 59.1177 95.7633 58.4074 98.4055 59.199" stroke="white" stroke-width="8.84645" stroke-linecap="round"/>
<path d="M96.6238 58.8179C90.5724 61.8108 84.7867 65.1734 78.9895 68.5835C68.2219 74.9172 57.0049 80.5139 45.8951 86.2775C45.302 86.5852 42.1578 88.9954 43.1763 87.8001C44.5661 86.1693 46.3732 84.764 47.9329 83.2729" stroke="white" stroke-width="8.84645" stroke-linecap="round"/>
<path d="M49.8171 79.7514C48.2809 82.4061 44.3565 88.904 48.771 91.1745C50.1372 91.8772 51.9887 90.9517 53.1482 90.2496C56.5142 88.2113 60.0284 86.0489 62.7824 83.2828C63.4582 82.604 68.7087 78.1333 67.3832 76.6912C66.3398 75.5561 61.2261 80.4038 60.703 80.8943C59.0667 82.4286 48.2938 93.6184 54.7701 94.0564C57.4582 94.2382 61.1259 93.5694 63.4683 92.215C63.6747 92.0957 66.1805 89.6495 64.743 89.8646C62.9428 90.134 58.3921 98.77 61.1227 99.0452C63.2246 99.257 75.8154 95.5116 74.0564 92.6466C72.9389 90.8263 66.8712 93.9829 65.6547 94.5516C65.2566 94.7377 59.1045 98.5466 60.4682 98.8911C62.5055 99.4058 65.8687 97.1872 67.4258 96.1583C70.6807 94.0077 72.9771 91.7011 73.7594 87.9756C75.4877 79.7439 66.5583 75.9507 59.1158 77.0643C58.3937 77.1724 57.2465 77.1109 57.2134 78.0329C57.1887 78.7214 57.274 79.9316 58.2412 79.7868C61.0934 79.3601 63.9334 77.0409 65.8045 75.0917C66.1924 74.6875 69.9681 70.5635 69.0071 69.8971C68.5039 69.5482 66.3077 75.4614 66.2836 75.9919C65.6053 90.903 96.0016 72.6537 100.475 69.9762C100.831 69.7627 108.916 64.5321 106.227 63.4102C104.871 62.8442 102.19 64.6757 101.194 65.1893C96.9741 67.3644 93.063 69.9008 89.521 72.983C88.9507 73.4792 81.7836 79.8364 85.1805 80.2915C86.7503 80.5019 88.224 79.6998 89.6144 79.1062C93.6324 77.3908 97.4023 75.3151 101.107 73.0492C104.054 71.2469 106.922 69.3019 109.531 67.0734C110.829 65.9646 112.462 64.6025 112.218 62.7838C111.87 60.1814 107.766 61.0383 105.951 61.3098" stroke="white" stroke-width="8.84645" stroke-linecap="round"/>
<path d="M94.5402 44.8771C93.5861 47.5737 93.9726 49.8592 93.8042 52.6182C93.6158 55.7026 94.2026 58.821 95.658 61.5557" stroke="white" stroke-width="8.84645" stroke-linecap="round"/>
<path d="M38.8866 84.95C39.8761 91.5631 40.0317 98.428 44.259 104.232C45.84 106.402 48.1481 107.837 49.9931 109.691C50.7479 110.449 51.9459 110.939 52.5383 111.74" stroke="white" stroke-width="8.84645" stroke-linecap="round"/>
<path d="M43.4896 113.418C32.8831 115.005 20.8791 119.178 14.8997 128.224C12.2925 132.169 12.7257 138.387 15.0537 142.041C18.0052 146.674 22.3103 150.679 28.2033 151.664C30.9187 152.118 33.8887 153.643 36.6125 153.646C39.3548 153.648 42.2644 153.892 44.9954 154.173C49.1529 154.601 53.1554 154.086 57.2698 153.471C61.5203 152.835 65.5093 152.233 69.5779 150.819C78.2488 147.806 87.1224 143.717 95.0738 139.247C99.1711 136.944 102.676 133.83 105.992 130.631C108.249 128.454 110.616 126.229 112.165 123.552" stroke="white" stroke-width="8.84645" stroke-linecap="round"/>
<path d="M112.644 124.453C109.151 131.203 101.095 133.001 94.875 136.903C89.5567 140.239 82.3874 142.247 76.2795 143.824C69.5165 145.57 62.9983 146.854 55.9727 146.215C47.7977 145.472 38.6124 143.86 31.3067 140.187" stroke="white" stroke-width="8.84645" stroke-linecap="round"/>
<path d="M55.2831 132.388C58.3754 130.496 55.584 132.506 54.2176 133.195C51.3624 134.636 48.5658 135.993 45.9542 137.815C43.4115 139.59 47.7583 136.791 48.3736 136.337C49.5283 135.486 51.0081 134.849 52.0192 133.848C53.2221 132.658 50.7703 133.404 50.2641 133.499C46.1749 134.261 42.0915 135.054 37.9995 135.802C35.9849 136.17 33.3867 136.951 31.2627 136.558C30.4972 136.416 29.315 135.817 29.1896 134.978C28.8794 132.905 31.7476 129.836 32.6045 128.006C32.7299 127.738 34.8181 123.555 33.1611 124.053C31.1953 124.645 28.9108 126.275 27.3432 127.497" stroke="white" stroke-width="8.84645" stroke-linecap="round"/>
<path d="M27.8274 126.13C25.087 128.75 23.1384 133.166 25.6266 136.358C26.5094 137.49 27.6166 138.778 29.0974 139.222C31.123 139.829 34.0663 141.07 36.214 140.749" stroke="white" stroke-width="8.84645" stroke-linecap="round"/>
<path d="M32.928 125.69C36.5946 125.142 40.1037 125.374 43.7656 124.465C44.6383 124.248 45.5213 124.09 46.3278 123.685C46.6255 123.536 47.4835 123.414 47.2161 123.229C46.6634 122.845 44.0053 123.936 43.4831 124.111C42.3195 124.501 31.8029 130.184 33.5562 131.68C34.6925 132.649 38.3883 131.63 39.517 131.364C49.0916 129.106 58.3319 125.707 67.5728 122.451" stroke="white" stroke-width="8.84645" stroke-linecap="round"/>
<path d="M70.8884 123.898C69.0888 126.398 69.431 127.03 72.4779 127.872C77.5473 129.272 84.1482 128.043 89.2688 127.304C92.0774 126.898 94.9936 126.655 97.6805 125.721" stroke="white" stroke-width="8.84645" stroke-linecap="round"/>
<path d="M41.424 134.138C41.2552 134.314 39.9216 135.133 40.4246 135.26C41.2424 135.466 42.0285 135.316 42.8593 135.291C51.0067 135.05 59.1951 133.763 67.2822 132.789C72.9531 132.106 78.5525 131.059 84.1635 130.011C87.872 129.318 91.6714 128.562 95.1173 127.004C97.9596 125.72 99.8499 124.304 101.201 121.631" stroke="white" stroke-width="8.84645" stroke-linecap="round"/>
<path d="M104.627 116.906C98.7685 123.55 90.5183 126.605 81.9418 128.976C74.3907 131.063 66.613 132.855 58.8708 134.119C56.0427 134.581 53.282 135.45 50.4112 135.637C49.6278 135.688 45.2904 135.489 45.478 135.403C47.1647 134.629 49.1178 134.338 50.9227 133.941C55.0801 133.026 59.1997 132.126 63.4148 131.496" stroke="white" stroke-width="8.84645" stroke-linecap="round"/>
<path d="M103.87 111.835C96.7433 113.479 89.9144 116.068 83.0536 118.495C80.6718 119.338 78.3463 120.198 76.0905 121.319C74.319 122.199 76.5566 121.369 77.0824 121.17C81.3644 119.555 86.0709 117.136 89.7201 114.456C91.8362 112.902 93.4323 109.203 89.6364 108.781C83.5501 108.106 77.5543 111.013 72.3068 113.678C68.493 115.615 64.6869 117.791 61.1449 120.153C59.9358 120.96 57.9306 122.127 57.2809 123.485C56.8247 124.439 61.5974 123.018 61.8631 122.908C63.5537 122.207 65.6443 121.255 66.9796 120.018C68.0907 118.989 69.1637 114.33 67.052 113.852C65.5268 113.507 62.9541 114.682 61.613 115.098C58.2825 116.132 54.9508 117.171 51.7328 118.502C49.8543 119.279 47.799 120.047 46.0796 121.13C45.4919 121.5 44.8507 122.205 45.9583 121.598C48.355 120.285 50.9888 117.794 52.8077 115.84C53.5064 115.089 56.3776 112.138 53.4296 112.579C50.3635 113.038 46.7713 115.307 44.4553 117.179C44.0696 117.491 40.3675 121.242 42.903 120.615C46.7532 119.664 50.7539 116.798 53.8369 114.534C56.3517 112.686 59.4478 110.247 60.4863 107.312" stroke="white" stroke-width="8.84645" stroke-linecap="round"/>
<path d="M52.5581 102.667C53.551 103.95 54.5518 104.711 56.2116 105.09C59.5308 105.85 63.159 106.589 66.5954 106.074C68.8178 105.742 68.3911 101.552 69.092 99.8697C70.0279 97.6226 70.7788 95.4058 71.523 93.0988C72.8855 88.8745 79.1922 96.4866 80.774 97.5099C83.2825 99.1326 85.8346 100.793 88.791 101.602C90.0004 101.933 91.8884 103.121 91.6245 101.358" stroke="white" stroke-width="8.84645" stroke-linecap="round"/>
<path d="M89.9127 92.2182C89.4242 95.4221 89.1257 98.6504 88.2452 101.79C87.8214 103.302 87.1643 102.847 86.3743 101.818C83.868 98.5551 79.2123 94.5719 74.4129 96.301C71.9267 97.1968 68.9801 100.933 71.0725 103.388C73.0861 105.751 76.0444 103.383 77.9601 102.105" stroke="white" stroke-width="8.84645" stroke-linecap="round"/>
<path d="M86.0649 91.8229C86.3723 93.3647 87.1383 95.7162 88.9999 94.0475C91.396 91.8997 93.4821 89.7521 95.3599 87.1926" stroke="white" stroke-width="8.84645" stroke-linecap="round"/>
<path d="M96.6654 84.4052C95.1837 85.4368 91.0186 89.4561 92.3735 91.5265C93.3579 93.031 96.0192 92.4992 97.5138 92.3772" stroke="white" stroke-width="8.84645" stroke-linecap="round"/>
<path d="M115.971 77.6288C116.228 74.849 118.696 72.2861 120.365 70.1682" stroke="white" stroke-width="8.84645" stroke-linecap="round"/>
<path d="M130.696 54.0461C132.666 54.1595 138.297 55.9354 136.362 55.5921C134.213 55.211 132.079 54.392 129.975 53.83C127.246 53.1009 124.45 52.5231 121.743 51.7502C120.443 51.3792 117.94 51.1926 117.042 50.2578" stroke="white" stroke-width="8.84645" stroke-linecap="round"/>
<path d="M123.837 45.0293C128.921 51.1807 141.26 62.9859 131.862 71.0411" stroke="white" stroke-width="8.84645" stroke-linecap="round"/>
<path d="M125.373 46.0941C129.337 49.3029 132.799 53.9546 134.881 58.4936C137.037 63.1911 139.1 69.9515 137.293 75.1225C136.111 78.5061 130.678 82.5331 128.14 78.3998" stroke="white" stroke-width="8.84645" stroke-linecap="round"/>
<path d="M122.655 57.8394C122.183 61.4238 121.625 65.3239 121.922 68.9276C122.009 69.9859 121.98 71.0359 122.051 72.0939C122.132 73.3003 122.112 70.5038 122.098 70.2331" stroke="white" stroke-width="8.84645" stroke-linecap="round"/>
<path d="M117.028 57.0626C116.428 63.4123 116.429 70.053 121.024 75.0743C126.79 81.3745 137.705 79.2169 145.223 77.4649" stroke="white" stroke-width="8.84645" stroke-linecap="round"/>
<path d="M173.268 55.449C174.297 54.949 175.079 53.8253 176.069 53.1942C177.664 52.1767 179.287 51.2486 180.99 50.4061C184.981 48.4325 189.288 47.2604 193.482 45.7835C197.15 44.4917 201.155 43.8255 205.004 43.2496C208.895 42.6673 212.857 41.7291 216.768 42.4613C220.561 43.1715 223.082 44.1611 226.293 46.1475C229.797 48.3151 232.296 51.3872 234.64 54.6174C237.442 58.4802 239.99 63.5979 240.976 68.3194C241.18 69.2974 241.427 70.8436 242.703 70.6528" stroke="white" stroke-width="8.84645" stroke-linecap="round"/>
<path d="M253.439 66.4561C253.954 63.0684 253.109 60.1163 250.676 57.5827C246.545 53.2799 241.92 49.578 236.693 46.4825C227.442 41.0034 214.855 38.598 204.252 42.0677C195.712 44.8622 186.204 48.7069 180.358 55.5235C179.186 56.8901 177.844 58.4211 177.133 60.0555C176.799 60.8214 176.394 59.2761 176.194 58.9001" stroke="white" stroke-width="8.84645" stroke-linecap="round"/>
<path d="M174.953 55.1975C176.441 53.951 177.662 52.3235 179.129 51.0092C180.846 49.4697 183.319 47.8963 185.522 47.0649C189.331 45.6278 192.888 43.5069 196.785 42.2842C205.602 39.5179 215.835 39.1879 224.94 40.4293C229.51 41.0523 234.242 41.5881 238.457 43.4282C242.675 45.2691 246.591 47.7901 250.327 50.381C254.218 53.0793 257.018 56.4423 258.603 60.6793C259.54 63.1833 260.983 66.2255 261.373 68.8318" stroke="white" stroke-width="8.84645" stroke-linecap="round"/>
<path d="M255.666 60.6147C254.49 58.0157 251.323 55.0638 248.856 53.4628C244.953 50.9307 239.839 49.6909 235.1 49.7617" stroke="white" stroke-width="8.84645" stroke-linecap="round"/>
<path d="M265.126 68.5953C274.053 66.9142 282.057 62.1746 291.094 60.8224C294.777 60.2714 298.7 60.0407 302.4 60.4265C306.466 60.8504 310.217 62.1825 314.181 62.9473C316.043 63.3065 317.869 63.857 319.738 64.1497C322.609 64.5992 324.739 66.8458 326.88 68.5343C330.175 71.1325 331.749 74.2225 332.348 78.2268C332.831 81.4519 332.465 84.8412 330.954 87.8302C329.324 91.054 325.09 92.0212 321.791 92.8366" stroke="white" stroke-width="8.84645" stroke-linecap="round"/>
<path d="M226.928 112.538C228.229 114.06 230.858 114.322 232.782 114.326C236.673 114.334 240.544 114.962 244.401 115.251C251.043 115.748 257.853 115.486 264.518 115.175C271.928 114.829 279.722 114.51 286.817 112.288C295.709 109.504 304.547 105.914 311.049 99.3036" stroke="white" stroke-width="8.84645" stroke-linecap="round"/>
<path d="M325.578 76.7195C327.187 76.6481 328.761 79.3464 329.563 80.3347C331.173 82.3171 332.236 84.3892 332.606 86.8625C333.033 89.7137 331.928 90.9266 330.401 93.3478C326.477 99.5652 319.059 103.62 312.044 105.957C305.539 108.124 299.087 109.879 292.329 111.156C284.831 112.574 277.44 114.235 269.828 114.865C264.683 115.291 259.191 113.974 254.035 113.665C249.735 113.406 245.551 112.355 241.312 112.005" stroke="white" stroke-width="8.84645" stroke-linecap="round"/>
<path d="M232.46 112.681C237.535 115.291 242.835 116.52 248.707 116.405C253.073 116.32 257.542 117.265 261.914 116.697C267.457 115.976 272.962 116.016 278.525 115.183C285.064 114.205 291.584 113.385 297.895 111.385C304.819 109.191 311.358 105.404 316.584 100.49C320.222 97.07 324.154 93.9447 326.81 89.6732C327.886 87.9416 328.925 86.1226 329.449 84.1669C329.908 82.4545 330.909 80.9025 331.107 79.1315" stroke="white" stroke-width="8.84645" stroke-linecap="round"/>
<path d="M330.349 74.0625C331.306 74.8133 331.573 76.4936 332.239 77.4872C333.259 79.0122 334.413 81.3907 334.813 83.1852C335.617 86.792 336.032 90.4243 334.244 93.961C331.082 100.216 325.809 103.444 320.305 107.709C314.277 112.381 307.38 114.276 299.868 115.878C288.261 118.354 276.58 120.228 264.696 119.683C260.953 119.511 256.255 119.297 252.745 118.07C250.02 117.117 247.3 116.394 244.44 115.893C237.388 114.656 230.492 112.092 223.807 110.089" stroke="white" stroke-width="8.84645" stroke-linecap="round"/>
<path d="M227.749 111.118C230.38 112.441 233.757 112.897 236.654 113.601C239.91 114.393 243.381 114.537 246.722 114.902C253.34 115.627 260.219 115.082 266.863 114.732C276.221 114.24 287.014 112.605 295.304 108.137C303.112 103.929 308.966 98.0495 313.57 90.8262" stroke="white" stroke-width="8.84645" stroke-linecap="round"/>
<path d="M326.985 72.2977C328.335 72.2377 328.895 73.986 329.269 74.9075C330.408 77.7133 330.016 81.0762 328.884 83.838C327.708 86.7044 326.285 89.2447 324.083 91.5215C322.194 93.4738 323.093 91.7438 323.097 90.0492" stroke="white" stroke-width="8.84645" stroke-linecap="round"/>
<path d="M320.574 77.7922C307.93 85.6647 294.779 93.3726 280.455 98.157C276.963 99.3235 271.369 101.529 267.751 99.9499" stroke="white" stroke-width="8.84645" stroke-linecap="round"/>
<path d="M266.623 87.8078C264.112 88.3423 261.461 89.1997 259.357 90.6586C258.22 91.4473 259.796 91.4159 260.404 91.2579C263.882 90.3546 267.126 88.6715 270.358 87.1949C276.98 84.1693 283.737 81.4414 290.361 78.4248" stroke="white" stroke-width="8.84645" stroke-linecap="round"/>
<path d="M299.641 80.6012C301.789 79.0344 299.411 80.3131 298.368 80.7916C294.362 82.6303 290.404 85.3402 286.69 87.6503C285.472 88.4073 283.66 89.4614 283.029 90.8076C282.685 91.5433 285.25 89.994 285.348 89.9387C289.377 87.669 293.598 85.7046 297.662 83.4889" stroke="white" stroke-width="8.84645" stroke-linecap="round"/>
<path d="M309.173 77.5547C310.617 77.4303 323.52 79.661 320.469 81.6958" stroke="white" stroke-width="8.84645" stroke-linecap="round"/>
<path d="M307.593 73.9042C307.36 73.0967 307.575 74.894 307.718 75.2533C308.246 76.5722 309.326 77.9454 310.544 78.7901C311.291 79.3081 313.413 80.2754 311.843 78.7757C309.737 76.7648 306.613 75.4642 303.767 74.6747C298.62 73.2467 292.191 72.1322 287.241 74.8436C282.76 77.299 278.127 78.9431 273.15 80.2816C270.931 80.8783 268.636 81.641 266.368 82.0162C265.905 82.0928 264.134 82.7077 264.861 81.9177C266.444 80.1974 269.089 78.9766 271.209 78.0523C277.891 75.1397 284.979 72.9081 292.098 71.2374C298.823 69.6588 305.201 68.5091 310.848 72.7693C313.04 74.4223 315.186 77.6926 317.926 78.5134" stroke="white" stroke-width="8.84645" stroke-linecap="round"/>
<path d="M311.032 85.3762C299.181 94.5445 282.685 95.8067 268.299 98.5011C263.424 99.4143 258.524 100.201 253.759 101.577C252.049 102.07 250.313 102.56 248.55 102.824" stroke="white" stroke-width="8.84645" stroke-linecap="round"/>
<path d="M248.165 102.557C251.567 103.5 256.383 102.299 259.836 101.782C266.86 100.731 273.787 99.4209 280.588 97.3816C284.144 96.3153 287.737 95.3436 290.9 93.409C291.768 92.8777 292.307 92.1123 293.026 91.6331" stroke="white" stroke-width="8.84645" stroke-linecap="round"/>
<path d="M294.177 92.4324C291.975 97.1365 283.939 100.183 279.265 101.719C273.677 103.555 267.877 104.756 262.06 105.661C258.72 106.18 255.373 106.661 252.029 107.162C249.685 107.512 251.73 107.515 252.825 107.366C262.417 106.063 271.034 103.47 279.916 99.6776C283.627 98.0935 289.87 96.2317 291.772 92.4684" stroke="white" stroke-width="8.84645" stroke-linecap="round"/>
<path d="M277.056 90.7815C268.69 93.7532 259.685 95.3038 251.089 97.5462C249 98.0913 242.741 99.6537 244.741 98.856C246.607 98.112 248.375 96.5745 250.129 95.6022C253.111 93.9489 256.492 92.4385 259.064 90.2338" stroke="white" stroke-width="8.84645" stroke-linecap="round"/>
<path d="M252.389 84.7545C253.22 84.2728 262.906 80.3719 261.712 79.5441C259.967 78.3341 255.568 80.661 254.059 81.3371C250.4 82.9764 245.763 84.8484 243.122 87.9049C241.501 89.7808 244.959 88.7111 245.753 88.4831C252.027 86.6826 257.922 83.9574 263.615 80.8792C264.857 80.208 270.469 77.4409 269.868 75.3542C269.302 73.3921 264.301 75.2392 263.341 75.5929C259.864 76.8732 255.865 77.7259 252.95 80.0632C252.117 80.7315 257.014 79.0394 257.609 78.7182C259.076 77.9263 262.948 76.1163 262.692 74.0702C262.436 72.0255 259.212 72.1447 257.703 72.3149C254.644 72.6601 251.35 73.0057 248.386 73.853C247.54 74.0949 245.748 74.8785 246.417 73.4817C247.294 71.6485 246.241 69.5567 245.403 67.9822" stroke="white" stroke-width="8.84645" stroke-linecap="round"/>
<path d="M247.804 70.2141C249.888 73.4227 251.605 77.646 249.666 81.3819C249.468 81.7632 243.709 89.9619 242.376 86.8821C241.212 84.1912 238.945 80.3869 235.909 79.3368C231.947 77.9663 229.402 82.8784 227.536 85.395C226.661 86.5745 225.758 87.9116 225.328 89.307C224.895 90.7103 226.857 86.7505 227.501 85.4182C229.419 81.4532 233.6 71.0303 224.579 72.5372C222.083 72.9541 201.702 82.7483 205.019 85.2905C205.811 85.8974 206.917 84.1584 207.123 83.7519C207.955 82.1052 208.022 80.5541 207.759 78.7973" stroke="white" stroke-width="8.84645" stroke-linecap="round"/>
<path d="M199.634 54.4217C195.07 55.5283 191.304 58.1522 187.692 60.9239C185.016 62.9768 182.363 65.2622 180.761 68.188C180.549 68.576 179.119 71.843 180.219 71.8507C181.544 71.86 184.734 67.7925 185.634 66.9911C188.592 64.3565 191.437 61.6097 194.404 58.9837C195.228 58.2549 197.11 56.2169 196.087 58.336C194.937 60.7165 193.092 68.3964 197.807 68.5532C199.618 68.6135 212.192 64.2036 211.554 62.8608C211.302 62.3307 208.192 64.3531 207.881 64.5263C207.526 64.7238 204.006 66.3001 204.668 67.0947C205.48 68.0699 208.391 65.7349 208.996 65.3313C210.596 64.2647 212.251 63.2773 213.849 62.2115C214.846 61.5464 215.394 62.2624 216.068 62.9773C217.228 64.2081 218.418 65.8321 219.113 67.3451C219.951 69.169 218.288 66.5798 217.836 66.0964C213.242 61.1819 206.471 58.6897 199.771 57.6407C197.024 57.2106 197.584 54.5312 197.244 52.2596C196.693 48.5752 199.422 51.2768 201.14 52.4685C206.561 56.2276 213.194 58.5755 217.938 63.2014C219.957 65.1699 213.318 59.8455 211.322 57.8562C210.968 57.5031 209.451 56.2669 210.662 56.5151C213.037 57.002 215.021 58.2169 217.033 59.4494C223.247 63.2566 232.854 68.0052 234.027 75.8403C234.415 78.4323 233.439 82.6596 230.551 83.8114" stroke="white" stroke-width="8.84645" stroke-linecap="round"/>
<path d="M212.287 53.8223C219.55 53.2881 230.704 57.2821 233.769 63.8904C234.714 65.9283 234.77 68.1998 234.044 70.3285C233.506 71.9034 233.134 72.5862 232.07 70.9477" stroke="white" stroke-width="8.84645" stroke-linecap="round"/>
<path d="M220.699 57.1012C223.424 64.076 227.923 76.7957 220.075 82.8591C219.481 83.3187 214.774 86.5564 214.47 84.5258C214.181 82.594 215.03 80.5476 215.311 78.6406" stroke="white" stroke-width="8.84645" stroke-linecap="round"/>
<path d="M216.289 71.3669C214.979 73.9879 213.848 76.6691 212.578 79.3012C211.551 81.4285 210.279 84.3419 210.739 86.7034C211.279 89.4802 215.243 89.0865 217.368 88.6812C218.335 88.4967 225.386 85.7336 226.107 86.5997C226.872 87.5184 224.494 91.0086 224.182 91.8912C223.506 93.8006 223.144 96.392 224.82 97.9508C226.684 99.6842 230.208 98.4371 232.256 97.6481C233.078 97.3315 235.559 95.5389 236.062 96.4847C237.272 98.7573 237.633 100.956 239.6 102.866C240.367 103.612 243.773 105.183 244.852 103.952C245.771 102.904 243.127 99.1538 242.694 98.3541C240.953 95.1352 238.371 92.3422 236.696 89.0829C235.571 86.8932 237.92 89.3502 238.367 90.0207C238.853 90.7497 240.708 94.4662 238.149 94.3188C236.809 94.2415 234.964 92.8167 233.668 92.3795C230.654 91.3622 227.971 90.3523 224.713 90.8398" stroke="white" stroke-width="8.84645" stroke-linecap="round"/>
<path d="M164.47 74.908C158.85 75.4462 153.063 76.2168 147.658 77.8914C145.506 78.5583 147.175 73.8026 147.167 72.5656C147.157 70.8068 146.912 66.6715 144.533 66.0846C141.213 65.2656 136.733 66.4239 133.426 66.9185C129.636 67.4857 125.903 67.8065 122.349 69.224C119.024 70.5498 129.077 66.745 132.526 65.7575C139.138 63.8641 145.759 61.9433 152.417 60.2076C154.662 59.6225 160.023 57.1494 162.389 58.6975C164.303 59.9496 169.717 63.9083 164.563 64.5275C162.258 64.8045 139.618 64.2379 140.059 61.2468C140.594 57.6163 167.479 65.233 170.706 66.2C172.099 66.6174 172.686 66.8578 171.359 65.7063C169.885 64.4265 168.282 63.5145 166.548 62.5748C164.268 61.3396 161.94 60.2633 159.528 59.2696C157.737 58.5315 159.761 60.5164 160.113 60.8739C164.787 65.6274 170.903 67.3194 177.215 69.4196C177.439 69.494 181.593 70.6727 181.59 70.6547C181.532 70.2672 178.817 69.1961 178.387 68.9383" stroke="white" stroke-width="8.84645" stroke-linecap="round"/>
<path d="M191.652 74.7294C190.184 75.424 188.531 75.7079 186.955 76.0799C182.984 77.0176 179.057 78.1125 175.111 79.1479C170.048 80.4767 165.21 82.1177 160.425 84.189C157.359 85.5161 158.685 85.9345 161.291 85.2472C169.912 82.9739 178.384 79.714 186.623 76.4176C189.687 75.192 192.8 74.0002 195.767 72.5658C196.656 72.1361 199.179 70.7594 198.197 70.9064C197.413 71.0238 196.328 71.9993 195.679 72.363C193.58 73.54 191.421 74.6169 189.324 75.7975C186.355 77.4687 182.781 78.7852 180.281 81.092C179.234 82.0584 183.675 81.0597 184.015 80.9833C190.299 79.5699 196.193 77.0312 202.246 74.9441C202.715 74.7823 206.833 73.1094 206.161 73.7463C199.804 79.7692 190.536 82.1136 183.739 87.5758C182.106 88.8882 183.675 88.296 184.872 87.8563C188.042 86.6911 191.142 85.323 194.33 84.1913C196.623 83.3774 192.233 85.9227 191.768 86.2485C187.327 89.3556 182.696 92.2013 178.184 95.21" stroke="white" stroke-width="8.84645" stroke-linecap="round"/>
<path d="M203.453 89.1601C197.006 93.9267 189.337 97.0992 182.303 101C180.731 101.871 179.264 102.981 182.007 101.836C187.242 99.65 192.527 97.5316 197.784 95.3896C200.885 94.1262 204.66 92.2551 208.031 91.7507C210.238 91.4205 204.188 93.9477 202.216 94.9604C199.178 96.5213 195.918 98.0652 193.422 100.38C193.186 100.599 190.79 102.717 192.228 102.502C200.378 101.283 207.779 98.1417 215.496 95.4752C218.08 94.5823 222.145 93.8119 224.283 92.0548C224.31 92.033 222.536 93.1595 222.088 93.499C219.237 95.6593 217.071 98.5493 214.148 100.662C212.295 102.002 212.555 100.151 211.803 98.9255" stroke="white" stroke-width="8.84645" stroke-linecap="round"/>
<path d="M115.32 133.123C116.75 135.526 121.185 136.906 123.675 138.19C126.608 139.703 129.46 141.316 132.356 142.885C135.989 144.853 139.694 145.73 143.898 145.855C150.059 146.038 156.712 145.395 162.826 144.481C173.088 142.945 183.143 141.957 192.615 137.432C196.803 135.431 201.352 134.399 205.503 132.264C208.98 130.476 212.221 128.478 215.16 125.96" stroke="white" stroke-width="8.84645" stroke-linecap="round"/>
<path d="M112.957 135.745C114.176 135.678 116.08 136.875 117.08 137.468C118.781 138.477 120.813 139.05 122.484 140.079C125.171 141.734 129.422 143.206 132.627 143.421C134.202 143.526 135.725 144.167 137.318 144.339C138.856 144.504 140.406 144.536 141.936 144.764C146.371 145.423 150.6 145.695 155.04 145.899C160.804 146.163 167.074 144.703 172.653 143.407C180.92 141.487 188.52 139.022 195.716 134.629C201.69 130.982 208.095 127.339 212.981 122.399C215.15 120.207 216.413 117.021 218.696 115.065" stroke="white" stroke-width="8.84645" stroke-linecap="round"/>
<path d="M221.149 115.346C217.856 124.652 209.275 128.536 201.313 134.188C198.33 136.306 194.787 137.63 191.483 139.204C187.609 141.05 182.65 142.525 178.389 143.125C163.048 145.288 147.428 146.197 132.27 142.827C122.979 140.76 113.804 138.605 106.035 133.218" stroke="white" stroke-width="8.84645" stroke-linecap="round"/>
<path d="M115.458 136.343C120.598 139.682 125.996 142.004 132.217 142.978C137.319 143.777 142.406 144.377 147.57 144.82C156.984 145.628 166.389 146.553 175.788 144.666C186.351 142.545 196.328 140.338 205.657 135.085C208.088 133.716 210.348 132.247 212.285 130.278C213.6 128.941 214.142 127.318 215.224 125.879C216.379 124.343 217.785 123.033 219.104 121.627C220.15 120.51 220.334 119.21 220.919 117.9C221.782 115.963 223.241 114.491 224.185 112.623" stroke="white" stroke-width="8.84645" stroke-linecap="round"/>
<path d="M222.205 115.511C218.112 121.065 214.512 126.864 209.066 131.407C204.698 135.051 200.275 137.545 195.013 139.917C190.252 142.064 185.102 143.749 180.112 145.314C173.73 147.316 166.211 148.956 159.496 148.705C154.033 148.5 148.332 148.237 143.284 146.109C138.325 144.019 133.021 142.925 128.045 140.938C123.79 139.239 119.155 137.771 115.437 135.194C112.239 132.976 108.895 130.941 105.707 128.73" stroke="white" stroke-width="8.84645" stroke-linecap="round"/>
<path d="M107.245 129.797C113.58 131.079 119.205 131.021 125.675 130.207C129.834 129.684 133.76 128.471 137.867 127.807C141.587 127.205 138.223 130.152 136.685 130.899" stroke="white" stroke-width="8.84645" stroke-linecap="round"/>
<path d="M107.33 134.967C107.825 137.081 110.603 139.138 112.533 140.074C114.605 141.078 116.867 141.696 118.979 142.619C120.786 143.407 122.649 143.511 124.468 144.137C130.085 146.069 136.711 146.522 142.641 147.177C151.563 148.164 161.102 147.271 169.81 145.128C179.565 142.728 188.61 139.814 196.717 133.903" stroke="white" stroke-width="8.84645" stroke-linecap="round"/>
<path d="M202.22 124.657C191.916 131.528 177.757 133.141 165.759 134.936C157.375 136.19 148.922 136.776 140.47 137.28C136.708 137.504 132.901 137.391 129.179 136.881C127.542 136.657 126.127 136.293 124.646 135.616C124.487 135.543 122.446 134.357 123.062 134.233C129.383 132.965 135.993 132.062 142.026 129.776" stroke="white" stroke-width="8.84645" stroke-linecap="round"/>
<path d="M140.894 119.903C128.225 123.03 115.636 126.444 103.044 129.849C95.8552 131.793 88.6455 134.034 81.2816 135.301C80.6928 135.402 75.8053 136.589 78.3047 135.099C82.1974 132.778 86.9069 131.203 91.0818 129.443C99.0512 126.084 106.921 122.653 114.571 118.658C116.135 117.841 120.894 115.679 119.153 116.029C116.207 116.62 113.349 118.185 110.566 119.257C107.546 120.421 104.426 121.499 101.504 122.881C100.586 123.314 103.2 121.841 103.607 121.594" stroke="white" stroke-width="8.84645" stroke-linecap="round"/>
<path d="M111.185 110.092C109.368 109.642 108.025 109.616 108.822 107.602C109.723 105.327 111.433 103.368 112.952 101.441C113.798 100.367 125.775 85.7946 124.077 84.8743C123.622 84.6279 122.27 85.2082 121.852 85.3511C119.15 86.2751 116.399 86.9625 113.735 88.0055C110.905 89.1131 108.024 90.2145 105.308 91.534" stroke="white" stroke-width="8.84645" stroke-linecap="round"/>
<path d="M110.989 90.3613C107.861 93.7609 104.092 96.9931 99.6595 98.7875C99.6379 98.7963 102.345 96.0567 102.986 95.4461C104.439 94.0634 107.917 91.6165 106.447 89.421C105.039 87.3174 114.103 81.5212 115.324 80.4618C118.541 77.6717 110.476 81.3043 110.405 81.3418C108.625 82.2834 106.041 83.7694 104.309 84.8456C103.839 85.1374 103.373 85.4371 102.935 85.771C102.741 85.9192 103.431 85.6828 103.652 85.5737C104.857 84.9793 106.027 84.345 107.251 83.7935" stroke="white" stroke-width="8.84645" stroke-linecap="round"/>
<path d="M101.693 94.9916C100.235 97.0566 97.6216 100.008 98.0196 102.668C98.2851 104.443 100.695 103.952 101.983 103.839C113.103 102.868 124.104 100.984 135.145 99.3812C139.862 98.6963 144.884 97.6158 149.668 97.9821C150.24 98.0259 150.473 97.9593 150.755 98.3414" stroke="white" stroke-width="8.84645" stroke-linecap="round"/>
<path d="M145.288 112.441C146.48 115.877 148.889 119.591 152.901 120.355C155.959 120.937 159.426 120.409 162.515 120.158C164.784 119.974 167.044 119.717 169.316 119.573C170.637 119.489 174.396 119.46 173.238 120.084C166.815 123.541 158.816 125.292 151.793 127.27C148.247 128.269 144.668 129.38 141.016 129.926" stroke="white" stroke-width="8.84645" stroke-linecap="round"/>
<path d="M208.172 109.188C208.799 108.893 212.77 108.01 210.839 109.113C207.204 111.191 203.158 112.71 199.21 114.129C189.065 117.776 178.598 120.542 168.288 123.705C166.25 124.33 164.21 124.955 162.182 125.608C161.427 125.852 160.772 126.161 161.712 125.535" stroke="white" stroke-width="8.84645" stroke-linecap="round"/>
<path d="M205.14 109.641C197.539 112.653 174.696 121.28 182.692 119.461C190.51 117.683 198.333 115.856 206.141 114.027" stroke="white" stroke-width="8.84645" stroke-linecap="round"/>
<path d="M218.895 111.795C214.227 114.812 209.063 117.102 204.292 119.955C203.178 120.621 204.777 119.99 205.15 119.809C207.059 118.881 209.024 117.633 210.61 116.274" stroke="white" stroke-width="8.84645" stroke-linecap="round"/>
<path d="M219.289 107.525C217.281 108.234 215.325 109.036 213.361 109.852C212.496 110.211 210.188 111.502 209.028 111.58C208.171 111.637 210.353 110.527 211.057 110.052C213.79 108.209 216.759 106.502 219.376 104.524C219.816 104.191 218.092 104.464 218.066 104.468C215.808 104.806 213.595 105.255 211.376 105.793C201.114 108.284 190.696 110.282 180.502 113.004" stroke="white" stroke-width="8.84645" stroke-linecap="round"/>
<path d="M182.338 109.165C173.654 111.061 165.303 114.168 156.66 116.193C153.81 116.861 155.249 116.284 156.942 115.521C163.163 112.716 169.885 110.725 175.896 107.538" stroke="white" stroke-width="8.84645" stroke-linecap="round"/>
<path d="M161.021 111.708C158.003 112.516 149.104 115.302 151.932 114.004C153.63 113.225 155.299 112.075 156.965 111.199C161.213 108.967 165.586 106.971 169.832 104.739C170.991 104.129 176.444 101.926 176.649 100.299C176.806 99.0594 155.617 104.159 154.5 104.441C149.811 105.626 145.056 106.446 140.339 107.496C139.173 107.755 140.557 107.18 140.773 107.071C142.44 106.23 144.151 105.593 145.882 104.903" stroke="white" stroke-width="8.84645" stroke-linecap="round"/>
<path d="M196.873 84.3144C178.74 89.3606 160.815 95.1613 142.367 99.057C140.663 99.4166 135.887 100.837 137.186 99.7242" stroke="white" stroke-width="8.84645" stroke-linecap="round"/>
<path d="M166.418 85.6318C157.45 89.2409 148.499 92.6565 139.295 95.6652C135.779 96.8148 132.176 98.5302 128.48 99.0833" stroke="white" stroke-width="8.84645" stroke-linecap="round"/>
<path d="M141.686 88.3608C138.837 92.2106 133.599 100.244 127.807 99.1842" stroke="white" stroke-width="8.84645" stroke-linecap="round"/>
<path d="M130.142 87.1699C132.784 92.3216 135.197 97.8384 137.034 103.309" stroke="white" stroke-width="8.84645" stroke-linecap="round"/>
<path d="M133.102 97.7443C132.172 98.7914 132.61 102.105 132.491 103.379C132.288 105.542 132.411 107.902 131.995 110.04C131.596 112.091 130.277 109.605 129.229 108.69" stroke="white" stroke-width="8.84645" stroke-linecap="round"/>
<path d="M124.376 106.176C124.243 108.347 125.601 109.759 125.903 111.778" stroke="white" stroke-width="8.84645" stroke-linecap="round"/>
<path d="M120.854 110.266C122.839 116.5 128.077 116.299 133.93 114.788" stroke="white" stroke-width="8.84645" stroke-linecap="round"/>
<path d="M136.099 113.17C138.351 114.668 140.712 113.947 143.215 114.697" stroke="white" stroke-width="8.84645" stroke-linecap="round"/>
</svg>
