<svg width="201" height="168" viewBox="0 0 201 168" fill="none" xmlns="http://www.w3.org/2000/svg">
<path d="M88.0507 71.8908C86.4387 66.2477 88.5881 61.4109 90.7375 56.5739C93.4242 50.9309 92.8869 50.6622 87.2447 48.5124C78.9158 45.5566 70.0496 43.4068 63.064 37.495C57.4219 32.6581 57.9593 28.6274 64.9448 25.6715C71.393 22.9843 77.5725 24.3279 83.752 25.6715C85.0954 25.9402 86.1701 26.4776 87.5135 26.7464C90.7376 27.2838 91.2748 27.0151 90.7375 23.7905C89.6628 18.9536 89.6628 14.1167 90.4688 9.27976C91.5435 0.680822 96.6483 -2.00633 104.709 1.48699C112.231 4.71159 116.799 10.6234 117.874 19.2223C117.874 20.5659 118.411 21.6408 118.411 22.9843C118.142 23.2531 117.874 23.7905 117.874 23.7905C118.411 24.5966 118.68 24.0592 119.217 23.7905C123.784 22.4469 127.277 18.9536 131.576 17.0726C137.487 14.6541 143.129 14.6541 148.771 18.1474C154.682 21.9095 154.951 28.0899 149.04 32.1207C146.353 34.0017 143.666 35.614 140.711 37.2263C138.024 38.8386 135.606 40.1822 132.651 41.7945C135.875 45.2878 140.174 46.3627 143.666 48.5124C148.234 51.737 151.995 55.7678 156.025 59.5298C158.175 61.4108 158.981 64.9042 157.637 67.86C156.294 70.5472 153.607 70.8159 150.921 70.8159C143.398 70.8159 136.412 68.1288 129.695 64.6355C127.546 63.5606 125.396 62.217 122.71 61.1421C118.142 59.5298 118.142 59.2611 115.724 63.5606C114.112 66.2477 113.037 68.9349 111.425 71.3534C107.395 78.6087 102.291 83.7144 92.887 80.7585C94.499 75.1154 94.4989 75.1154 88.0507 71.8908ZM110.619 36.1515C108.47 36.1515 106.321 38.3012 106.321 40.7197C106.321 43.4068 109.813 47.4376 112.231 47.4376C114.649 47.4376 116.53 45.2878 116.53 42.8694C116.262 39.9135 113.306 36.1515 110.619 36.1515Z" fill="white"/>
<path d="M181.281 136.382C180.206 136.113 178.594 135.575 177.251 135.575C173.49 135.038 172.415 136.113 173.758 139.875C175.639 145.518 176.714 151.161 176.176 156.804C175.37 163.253 171.609 166.747 165.161 167.284C162.743 167.553 161.131 165.94 159.787 164.328C154.682 158.685 150.652 152.505 147.159 145.787C144.741 140.95 144.473 141.219 139.368 143.368C134.263 145.518 128.89 147.399 123.785 149.28C121.636 150.086 119.217 150.086 116.799 149.817C113.575 149.28 110.62 148.474 109.814 145.249C109.008 142.025 109.814 138.8 112.501 136.65C116.799 133.157 120.292 128.858 125.665 126.439C128.621 125.096 128.352 123.214 127.009 120.796C125.665 118.646 123.785 117.303 121.904 115.959C115.725 111.122 111.694 105.21 112.232 96.6115C112.5 91.7746 113.844 90.1623 118.68 89.3562C120.023 89.0875 121.098 88.8187 122.442 88.55C127.546 87.7439 131.845 88.0126 135.606 92.8495C138.562 96.6115 142.055 99.5674 144.473 103.867C146.353 107.36 147.428 107.091 149.846 103.598C152.802 99.5674 155.488 95.5367 158.713 91.7746C162.474 87.2064 167.31 84.788 173.49 86.4003C174.833 86.669 175.908 86.669 177.251 86.669C183.43 87.2064 185.311 90.6998 182.893 96.3428C180.744 101.717 178.057 106.823 174.296 111.391C173.49 112.466 172.146 113.272 172.683 114.616C173.221 116.497 175.102 115.959 176.445 116.228C183.699 117.034 190.685 118.646 197.133 122.677C202.506 126.17 202.238 129.664 196.596 132.888C191.759 135.307 186.655 135.575 181.281 136.382ZM150.921 115.959C145.547 115.959 141.786 119.452 141.786 124.558C141.786 129.395 146.354 133.694 151.458 133.694C155.757 133.694 161.399 128.32 161.399 124.289C161.399 120.259 156.026 115.959 150.921 115.959Z" fill="white"/>
<path d="M36.7337 88.0131C38.8831 82.9075 40.2265 77.8019 43.1819 73.7711C46.406 69.203 49.0927 64.0974 56.0783 64.6348C63.0638 65.1722 66.2879 68.6655 65.4819 75.6522C64.9445 78.8768 64.6759 82.3701 63.3325 85.5947C61.4518 90.969 61.7204 90.969 67.3626 91.5065C75.1542 92.0439 81.871 94.4624 88.3192 98.4931C91.0059 100.105 91.812 101.986 91.5433 104.674C91.2746 107.898 88.8565 108.973 86.1698 109.242C81.3337 109.779 76.4975 111.123 71.6613 110.585C70.0493 110.317 68.7059 110.585 67.0938 110.585C64.4071 110.585 63.3324 111.929 63.0637 114.616C63.0637 118.109 62.7951 121.603 62.7951 124.827C62.7951 126.977 62.2578 129.127 61.9891 131.277C60.9144 135.845 58.4963 139.069 53.6601 139.876C48.5553 140.682 44.5252 138.532 41.5698 134.501C39.1517 131.277 37.8084 127.783 36.4651 124.29C35.659 121.871 34.0469 121.603 32.7036 123.484C30.5542 126.708 27.3301 128.321 24.6433 130.47C22.4939 132.083 20.0758 132.62 17.3891 132.351C8.79151 131.814 7.17953 129.127 10.4036 121.334C12.553 116.228 16.5831 112.198 19.2698 107.361C21.9566 102.793 21.9566 102.793 17.1205 100.374C13.6277 98.4931 9.86621 96.8808 6.64211 94.1936C6.10477 93.6562 5.29871 93.1188 4.76136 92.5813C0.193898 88.2819 -1.14937 84.5198 1.00002 80.7578C2.88074 77.5332 9.06028 75.3835 13.6277 76.727C17.6579 78.0706 21.688 79.4142 25.7181 81.0265C29.7482 82.3701 32.4349 85.5947 36.7337 88.0131ZM50.436 104.405C50.436 101.449 49.0928 99.2993 47.212 98.4931C44.794 97.4182 37.5397 99.8367 35.9277 101.718C35.3903 102.524 35.1216 103.33 35.3903 104.136C36.1963 106.286 37.0023 108.973 39.689 108.973C43.7191 109.242 47.7493 108.167 50.9734 105.748C51.2421 106.017 50.7047 104.942 50.436 104.405ZM52.8541 129.127C52.8541 127.783 52.5854 126.44 50.9734 126.171C49.8987 126.171 49.0926 126.977 49.0926 128.052C49.0926 129.396 49.8988 130.47 51.2421 130.47C52.5855 131.008 52.5855 129.933 52.8541 129.127ZM57.959 103.33C57.153 103.599 56.8842 103.867 57.1529 104.674C57.1529 104.942 57.6903 105.211 57.959 105.211C58.765 105.211 59.0337 104.674 58.765 103.867C58.765 103.599 58.2277 103.599 57.959 103.33Z" fill="white"/>
<path d="M88.05 71.8906C94.4982 74.8465 94.4983 74.8465 92.8863 80.7583C88.3188 79.4147 87.5127 76.1901 88.05 71.8906Z" fill="white"/>
<path d="M110.619 36.1523C113.306 36.1523 116.261 39.6457 116.261 42.8703C116.261 45.2887 114.381 47.4385 111.963 47.4385C109.545 47.4385 106.052 43.4077 106.052 40.7205C106.052 38.5708 108.201 36.4211 110.619 36.1523Z" fill="#FAC95D"/>
<path d="M150.92 115.961C156.294 115.961 161.667 120.26 161.399 124.291C161.399 128.322 155.756 133.428 151.458 133.696C146.621 133.696 142.054 129.397 141.785 124.56C141.785 119.454 145.547 115.961 150.92 115.961Z" fill="#FAC95D"/>
<path d="M50.4352 104.406C50.7039 104.943 51.2414 106.018 51.2414 106.018C47.7486 108.436 43.9871 109.511 39.957 109.242C37.0016 108.974 36.4642 106.287 35.6581 104.406C35.3895 103.599 35.6582 102.793 36.1955 101.987C37.8076 99.8373 45.0618 97.6876 47.4799 98.7625C49.0919 99.2999 50.4352 101.718 50.4352 104.406Z" fill="#FAC95D"/>
<path d="M52.8541 129.127C52.5854 129.665 52.5854 130.74 51.5107 130.74C50.1673 130.74 49.3613 129.665 49.3613 128.321C49.3613 126.978 49.8987 126.171 51.2421 126.44C52.5855 126.44 52.8541 127.784 52.8541 129.127Z" fill="white"/>
<path d="M57.9596 103.33C58.2283 103.599 58.7656 103.599 58.7656 103.868C59.0343 104.405 58.497 104.942 57.9596 105.211C57.691 105.211 57.1535 104.942 57.1535 104.674C56.8848 103.868 57.4223 103.33 57.9596 103.33Z" fill="white"/>
</svg>
