<svg width="1921" height="43" viewBox="0 0 1921 43" fill="none" xmlns="http://www.w3.org/2000/svg">
<path d="M0.413574 0.37207H960.414H1920.41V2.12445L1915.71 7.61344C1876.13 53.7807 1804.7 53.7807 1765.12 7.61343V7.61343C1762.65 4.72798 1758.18 4.72798 1755.71 7.61343V7.61343C1716.13 53.7807 1644.7 53.7807 1605.12 7.61343V7.61343C1602.65 4.72798 1598.18 4.72893 1595.71 7.61439V7.61439C1556.13 53.7731 1484.69 53.7746 1445.12 7.61587V7.61587C1442.65 4.73275 1438.19 4.7388 1435.72 7.62956V7.62956C1396.4 53.788 1324.76 53.5276 1285.15 7.6129V7.6129C1282.67 4.7404 1278.19 4.71723 1275.72 7.59736V7.59736C1236.13 53.773 1164.69 53.773 1125.11 7.59736V7.59736C1122.64 4.71723 1118.16 4.74039 1115.68 7.6129V7.6129C1076.07 53.5276 1004.43 53.788 965.104 7.62956V7.62956C962.641 4.7388 958.177 4.73275 955.706 7.61587V7.61587C916.132 53.7746 844.694 53.7731 805.12 7.61439V7.61439C802.646 4.72894 798.181 4.72798 795.708 7.61343V7.61343C756.127 53.7807 684.7 53.7807 645.119 7.61343V7.61343C642.646 4.72798 638.181 4.72893 635.707 7.61439V7.61439C596.134 53.7731 524.695 53.7746 485.122 7.61587V7.61587C482.65 4.73275 478.186 4.7388 475.723 7.62956V7.62956C436.398 53.788 364.759 53.5276 325.148 7.6129V7.6129C322.67 4.7404 318.191 4.71723 315.721 7.59736V7.59736C276.134 53.773 204.694 53.773 165.106 7.59736V7.59736C162.636 4.71723 158.182 4.71122 155.704 7.58372V7.58372C115.869 53.7591 44.2281 53.5515 4.67895 7.13091L0.413574 2.12445V0.37207Z" fill="#81B769"/>
</svg>
