<svg width="58" height="55" viewBox="0 0 58 55" fill="none" xmlns="http://www.w3.org/2000/svg">
<path d="M54.9127 26.7786C55.0518 27.3353 54.7735 27.7528 54.3561 28.1703C51.2949 29.0053 50.1818 30.6753 50.1818 34.0153C50.1818 34.7111 49.9035 35.9636 49.2078 35.5461C47.5381 34.5719 48.2338 35.9636 47.9555 36.3811C47.3989 37.6336 47.9555 38.1902 49.3469 38.3294C48.3729 39.0252 48.6512 40.6952 47.2598 41.1127C46.2858 40.9735 45.7292 41.391 45.8683 42.3652C45.1726 42.226 45.0334 40.6953 44.0594 41.5302C43.3637 41.9477 42.5288 42.5044 42.668 43.6177C42.8071 45.1486 40.5809 42.7827 40.8592 44.731C40.9983 45.566 40.1634 45.9835 39.6069 45.9835C37.3806 46.1226 36.2674 47.9319 34.7369 49.1844C33.6237 50.1585 32.2323 51.1326 32.3715 52.9418C31.954 52.9418 31.5366 53.081 31.1192 53.081C30.1451 53.2201 29.1712 53.4984 28.1972 53.6376C25.4143 53.9159 24.8576 53.6376 23.1879 50.8543C23.0487 50.5759 22.7705 50.4368 22.353 50.2977C21.5182 50.1585 20.266 50.2977 19.9877 49.8802C18.8745 48.4885 20.9617 48.7668 21.24 47.9318C21.3791 47.236 19.7093 44.731 19.0136 44.731C19.0136 44.731 18.8745 44.8702 18.8745 45.0094C18.3179 46.8185 16.5091 45.8443 15.5351 46.5402C14.9785 46.401 14.8393 45.8444 14.8393 45.4269C15.2568 44.3135 16.6482 44.731 17.2048 44.0352C15.9525 40.5561 15.1176 39.9994 10.9433 39.1644C10.2476 38.1903 9.83012 37.0769 9.1344 35.9636C4.40352 29.1445 0.924935 21.7687 0.0900733 13.4188C-0.327357 8.96548 0.646648 4.65133 4.26438 1.31136C5.79496 -0.0802995 7.32554 -0.0803335 9.1344 0.0588321C11.7781 0.337163 14.1436 0.893894 16.3699 2.56388C19.7093 5.06886 22.0747 8.26962 24.5793 11.4704C26.1099 13.4187 26.11 13.4188 28.1972 12.0271C31.5366 9.80047 34.7369 7.43464 38.6329 6.18215C41.9724 5.06883 45.1727 5.20803 48.5121 6.04302C50.7384 6.59968 51.9907 9.10463 53.9387 10.3571C56.9999 12.3054 57.6956 15.3671 56.8607 18.7071C56.3041 20.7945 56.0259 22.8821 55.4693 24.8304C54.3561 25.2479 54.0778 25.8045 54.9127 26.7786ZM25.6925 42.0869C23.8837 41.9477 22.4922 42.3652 21.5182 44.0352C21.7965 44.4527 22.2139 45.0094 22.2139 45.4269C22.4922 47.0969 23.3271 47.236 24.7186 46.5402C26.2492 45.8443 26.5274 44.8702 25.4143 43.7569C24.3012 42.9219 25.4142 42.6435 25.6925 42.0869C25.8317 42.0869 26.11 42.0869 26.2491 42.0869C26.9448 42.0869 27.5015 41.9477 27.5015 41.1127C27.5015 40.6952 27.3623 40.4169 26.9448 40.4169C26.11 40.2777 25.8317 40.8344 25.6925 41.5302C25.6925 41.6694 25.6925 41.9477 25.6925 42.0869ZM38.3545 13.8363C40.4417 13.8363 41.9724 13.8363 43.503 13.8363C43.9204 13.8363 44.4769 13.4188 44.4769 13.1404C44.616 12.4446 43.9204 12.1663 43.503 12.1663C41.6941 11.7488 40.0243 12.0271 38.3545 13.8363Z" fill="#FAA57B"/>
<path d="M32.372 52.8026C32.2328 50.9934 33.6242 49.8801 34.7373 49.0451C36.2679 47.7926 37.3811 46.1226 39.6074 45.8443C40.1639 45.8443 40.9988 45.4268 40.8597 44.5918C40.4423 42.6435 42.8076 44.8701 42.6685 43.4785C42.5293 42.3652 43.3642 41.9477 44.0599 41.391C45.0339 40.6952 45.1731 42.0869 45.8688 42.226C45.8688 43.3394 45.034 44.0352 44.4774 44.731C40.8597 48.2101 37.3811 51.6893 32.372 52.8026Z" fill="#FAA57B"/>
<path d="M15.5352 46.262C16.5092 45.5662 18.318 46.5404 18.8746 44.7313C18.8746 44.5921 19.0137 44.4529 19.0137 44.4529C19.7094 44.4529 21.5184 46.9579 21.2401 47.6537C20.9618 48.4887 18.8746 48.2104 19.9878 49.6021C20.4052 50.1587 21.6574 49.8804 22.3531 50.0195C22.6314 50.0195 22.9097 50.2979 23.188 50.5762C24.8577 53.3595 25.4144 53.6379 28.1973 53.3595C29.1713 53.2204 30.1452 52.942 31.1193 52.8028C28.1972 55.5862 24.1621 55.7253 21.3792 53.2203C19.0138 51.272 16.9266 49.0454 15.5352 46.262Z" fill="#FAA57B"/>
<path d="M49.3468 38.1902C48.0945 38.1902 47.538 37.4943 47.9554 36.2418C48.0945 35.8244 47.538 34.2936 49.2077 35.4069C49.9034 35.8244 50.1817 34.5719 50.1817 33.8761C50.1817 30.6753 51.2948 29.0053 54.356 28.0311C53.382 31.7886 51.9906 35.4069 49.3468 38.1902Z" fill="#FAA57B"/>
<path d="M10.8047 38.8867C15.1181 39.7217 15.8139 40.4175 17.0661 43.7575C16.3704 44.4533 15.1181 44.0358 14.7007 45.1492C13.3093 43.0617 11.6395 41.2525 10.8047 38.8867Z" fill="#FAA57B"/>
<path d="M54.9123 26.7783C54.0774 25.9434 54.3558 25.2476 55.3298 24.8301C55.6081 25.5259 55.4689 26.2217 54.9123 26.7783Z" fill="#FAA57B"/>
<path d="M45.8688 42.227C45.7297 41.1137 46.2862 40.8353 47.2603 40.9745C46.982 41.6703 46.5645 42.227 45.8688 42.227Z" fill="#FAA57B"/>
<path d="M25.6929 42.0869C25.4146 42.6435 24.4406 42.9219 25.4146 43.896C26.5278 44.8702 26.2495 45.8443 24.7189 46.6793C23.1883 47.3752 22.4926 47.236 22.2143 45.566C22.0751 45.0094 21.6577 44.5919 21.5186 44.1744C22.4926 42.5044 23.884 41.9477 25.6929 42.0869Z" fill="#FAA57B"/>
<path d="M38.3545 13.8374C40.0242 12.0282 41.694 11.7499 43.5029 12.0282C44.0595 12.1674 44.616 12.4457 44.4768 13.0024C44.3377 13.2807 43.7812 13.6982 43.5029 13.6982C41.9723 13.8374 40.4416 13.8374 38.3545 13.8374Z" fill="#FAA57B"/>
<path d="M25.6924 42.088C25.6924 41.9488 25.6923 41.6705 25.8315 41.5313C25.9706 40.8355 26.249 40.2788 27.0838 40.418C27.3621 40.418 27.6404 40.6963 27.6404 41.1138C27.6404 41.9488 27.0838 42.088 26.3881 42.088C26.1098 42.088 25.8315 42.088 25.6924 42.088Z" fill="#FAA57B"/>
</svg>
