<svg width="107" height="61" viewBox="0 0 107 61" fill="none" xmlns="http://www.w3.org/2000/svg">
<rect x="7.9834" width="100" height="43" rx="21.5" transform="rotate(10.6995 7.9834 0)" fill="#FAA57B"/>
<path d="M20.3647 29.817L22.4382 18.8432L26.6045 19.6304C27.6735 19.8324 28.4336 20.2908 28.8848 21.0057C29.3359 21.7205 29.4624 22.602 29.2644 23.6501C29.0664 24.6982 28.6269 25.4728 27.9461 25.9738C27.2652 26.4747 26.3903 26.6242 25.3212 26.4222L23.2145 26.0242L22.4243 30.2062L20.3647 29.817ZM23.5323 24.3419L25.2145 24.6598C25.7701 24.7647 26.1891 24.7299 26.4718 24.5554C26.7564 24.3703 26.9453 24.0315 27.0384 23.5389L27.1512 22.9415C27.2443 22.4489 27.1911 22.0697 26.9916 21.8041C26.7941 21.5279 26.4176 21.3374 25.8621 21.2324L24.1799 20.9146L23.5323 24.3419ZM30.0131 29.9954L32.0255 30.3757L32.9583 25.439L30.9459 25.0588L31.2459 23.4709L35.2707 24.2313L34.8518 26.4481L34.9776 26.4719C35.1044 26.2027 35.2555 25.949 35.4308 25.7108C35.6185 25.464 35.8308 25.2599 36.0676 25.0983C36.3168 24.9283 36.6 24.8082 36.9173 24.7378C37.2345 24.6675 37.5975 24.671 38.0063 24.7482L38.8867 24.9145L38.5302 26.8012L36.8637 26.4863C36.2558 26.3714 35.7452 26.4595 35.332 26.7505C34.9188 27.0415 34.6597 27.4648 34.5548 28.0203L34.0379 30.7559L36.8521 31.2876L36.5521 32.8755L29.7131 31.5833L30.0131 29.9954ZM42.6418 34.2215C42.0234 34.1047 41.4867 33.9001 41.0317 33.6079C40.5872 33.3177 40.2267 32.9565 39.9501 32.5243C39.684 32.0941 39.5062 31.5991 39.4165 31.0394C39.3374 30.4817 39.3592 29.8779 39.482 29.2281C39.6047 28.5782 39.8047 28.0081 40.0819 27.5177C40.3696 27.0293 40.7158 26.6333 41.1205 26.3299C41.5357 26.0284 42.0032 25.8236 42.5229 25.7156C43.0532 25.6095 43.6275 25.6149 44.2459 25.7317C44.8538 25.8466 45.3853 26.0501 45.8403 26.3423C46.2952 26.6346 46.6558 26.9958 46.9219 27.426C47.1984 27.8582 47.3763 28.3532 47.4555 28.9109C47.5451 29.4706 47.5285 30.0754 47.4058 30.7252C47.283 31.375 47.0778 31.9442 46.7901 32.4326C46.5129 32.923 46.1667 33.3189 45.7515 33.6204C45.3468 33.9239 44.8793 34.1286 44.3491 34.2347C43.8188 34.3408 43.2497 34.3364 42.6418 34.2215ZM42.9329 32.6808C43.5094 32.7897 43.998 32.7029 44.3988 32.4204C44.8015 32.1274 45.0672 31.6403 45.1959 30.959L45.4336 29.7012C45.5623 29.02 45.4916 28.4747 45.2216 28.0654C44.9535 27.6457 44.5313 27.3814 43.9548 27.2725C43.3783 27.1635 42.8887 27.2556 42.486 27.5486C42.0852 27.8311 41.8205 28.313 41.6918 28.9943L41.4541 30.252C41.3254 30.9333 41.3951 31.4838 41.6632 31.9035C41.9332 32.3128 42.3565 32.5719 42.9329 32.6808ZM53.9941 34.6893L53.884 34.6685C53.5709 35.1195 53.1926 35.4551 52.7494 35.6753C52.3166 35.8975 51.7858 35.9492 51.1569 35.8304C50.6957 35.7432 50.2871 35.5792 49.931 35.3382C49.5873 35.0887 49.3119 34.7653 49.1047 34.368C48.8996 33.9601 48.7741 33.475 48.7284 32.9128C48.6826 32.3505 48.7271 31.713 48.8618 31.0003C49.1311 29.5748 49.6151 28.5645 50.3137 27.9692C51.0124 27.3739 51.8282 27.1643 52.761 27.3406C53.3899 27.4594 53.8652 27.7012 54.1871 28.066C54.5195 28.4327 54.7492 28.8832 54.8762 29.4174L54.9862 29.4382L55.922 24.4858L57.9344 24.866L55.7362 36.5002L53.7238 36.12L53.9941 34.6893ZM52.3089 34.3872C52.5395 34.4307 52.7593 34.4451 52.9683 34.4303C53.1898 34.4071 53.3839 34.3569 53.5504 34.2798C53.7294 34.1942 53.8767 34.0755 53.9922 33.9236C54.1202 33.7633 54.206 33.5678 54.2496 33.3372L54.7308 30.7903C54.7743 30.5597 54.7648 30.3516 54.7022 30.1661C54.652 29.9721 54.5582 29.8078 54.4208 29.6733C54.2958 29.5303 54.1335 29.4128 53.9338 29.3207C53.7465 29.2202 53.5376 29.1482 53.307 29.1046C52.72 28.9937 52.2304 29.0858 51.8382 29.3807C51.4564 29.6777 51.2071 30.1354 51.0903 30.7537L50.8467 32.0429C50.7298 32.6613 50.795 33.1784 51.0421 33.5942C51.2997 34.0119 51.7219 34.2763 52.3089 34.3872ZM63.3267 36.4526L63.2481 36.4378C62.9868 36.8443 62.6367 37.1744 62.198 37.428C61.7718 37.6731 61.2285 37.7333 60.5682 37.6086C59.7716 37.458 59.1713 37.0732 58.7672 36.4541C58.3755 35.8265 58.2728 35.0201 58.459 34.0348L59.4481 28.7995L61.4605 29.1797L60.5248 34.1321C60.303 35.306 60.7005 35.989 61.7172 36.1811C61.9163 36.2187 62.1151 36.2291 62.3137 36.2124C62.5228 36.1976 62.7105 36.1516 62.8771 36.0746C63.0561 35.989 63.2024 35.8755 63.3159 35.7341C63.44 35.5947 63.5228 35.415 63.5644 35.1949L64.5892 29.7708L66.6016 30.1511L65.0688 38.2635L63.0564 37.8833L63.3267 36.4526ZM71.2371 39.6244C70.6187 39.5075 70.0821 39.303 69.6271 39.0108C69.1721 38.7186 68.8063 38.3564 68.5297 37.9242C68.2636 37.494 68.0858 36.999 67.9961 36.4393C67.917 35.8816 67.9388 35.2778 68.0615 34.6279C68.1843 33.9781 68.3843 33.408 68.6615 32.9176C68.9492 32.4292 69.2954 32.0332 69.7001 31.7298C70.1153 31.4283 70.5828 31.2235 71.1025 31.1155C71.6328 31.0094 72.2071 31.0148 72.8255 31.1316C73.685 31.294 74.343 31.6029 74.7998 32.0583C75.2565 32.5136 75.5657 33.0606 75.7273 33.699L74.0104 34.2539C73.929 33.8803 73.7719 33.5629 73.539 33.3018C73.3185 33.0322 72.9777 32.8538 72.5166 32.7667C71.9191 32.6538 71.4253 32.7396 71.035 33.0241C70.6552 33.3106 70.4089 33.7525 70.296 34.3499L70.0405 35.702C69.9296 36.289 69.9977 36.7903 70.2449 37.2061C70.5044 37.6134 70.9434 37.8754 71.5618 37.9923C72.0439 38.0834 72.4473 38.0456 72.7719 37.879C73.1069 37.7143 73.3982 37.4654 73.6457 37.1322L74.9857 38.3135C74.6042 38.8385 74.1011 39.2319 73.4763 39.4938C72.8639 39.7472 72.1176 39.7907 71.2371 39.6244ZM80.9356 41.2614C80.16 41.1149 79.6273 40.8026 79.3377 40.3245C79.0481 39.8464 78.9647 39.2824 79.0875 38.6326L79.9044 34.3091L77.5461 33.8635L77.8461 32.2756L79.4498 32.5786C79.7747 32.64 80.0171 32.6207 80.1772 32.5207C80.3392 32.4101 80.4519 32.1872 80.5152 31.8518L80.8865 29.8866L82.7574 30.2401L82.2168 33.1014L85.5184 33.7252L85.2184 35.3131L81.9168 34.6893L80.984 39.626L84.2856 40.2498L83.9856 41.8377L80.9356 41.2614Z" fill="#262626"/>
</svg>
