<svg width="24" height="24" viewBox="0 0 24 24" fill="none" xmlns="http://www.w3.org/2000/svg">
<g id="Icon/Joke">
<g id="Group">
<path id="Vector" d="M6.61582 19.9107C6.57297 19.8679 6.48727 19.8678 6.44442 19.825C6.40158 19.5679 6.23019 19.4822 6.01596 19.525C6.01596 19.0537 5.71603 19.0965 5.41611 19.0965C5.33042 19.0108 5.28757 18.968 5.20188 18.8822C5.20188 18.668 5.11619 18.4966 4.85911 18.4537C4.64488 18.1109 4.25927 17.8538 4.08789 17.4681C4.30212 17.3395 4.4735 17.1681 4.30212 16.9967C3.91651 16.5682 4.34496 16.5253 4.55919 16.3539C4.77342 16.1825 4.98766 16.4396 5.24474 16.3967C5.54466 16.9967 6.14451 17.3824 6.61582 17.8109C8.15827 19.1822 9.91496 19.9107 11.9716 19.9536C12.6571 19.9536 13.4283 20.125 14.071 19.7822C15.0565 19.2251 16.1705 18.8822 17.0702 18.1109C18.9983 16.4825 19.9838 14.4255 19.9838 11.94C19.9838 9.1117 18.5699 6.96907 16.2562 5.38351C15.742 5.04068 15.3136 4.74072 15.3136 4.05507C16.2133 3.49798 17.0274 3.62654 17.9272 4.26934C20.1551 5.81205 21.4405 7.91183 21.869 10.5687C22.3403 13.4827 21.5262 16.0539 19.641 18.2395C18.6555 19.3965 17.3273 20.2107 15.8706 20.7249C14.2852 21.282 12.6999 21.4106 11.0718 21.3677C10.6433 21.1106 10.2149 20.6821 9.61504 21.1106C9.4865 21.0677 9.35796 21.0678 9.18658 21.0249C8.88666 20.5964 8.50102 20.3821 7.98687 20.425C7.81549 20.425 7.68696 20.4249 7.51557 20.4678C7.38704 19.9536 7.04428 19.9107 6.61582 19.9107Z" fill="#262626"/>
<path id="Vector_2" d="M2.28839 13.7393C1.7314 11.8109 2.03133 9.96821 2.75972 8.16838C3.35956 6.75422 4.30217 5.55432 5.45901 4.61155C6.31593 3.9259 7.25853 3.2831 8.41537 3.11169C9.05806 3.02598 9.61508 2.72603 10.2578 2.59747C11.6717 2.2975 12.9571 2.64033 14.2853 2.98316C14.8423 3.11172 15.1422 3.49739 15.1851 4.09733C13.9425 4.05448 12.6571 3.9259 11.4146 3.96875C9.10091 4.09731 7.21569 5.16865 5.71608 6.92563C5.07339 7.69698 4.68777 8.55407 4.21647 9.41113C3.53093 9.75396 3.53095 9.88247 4.0451 10.2253C4.08794 10.4396 4.04509 10.6538 3.8737 10.8681C3.65947 11.2109 3.27386 11.5109 3.74517 11.8966C3.87371 12.1537 3.91654 12.4537 3.78801 12.7108C3.35955 12.6679 3.18816 12.925 3.05962 13.225C3.01677 13.6536 2.71685 13.7821 2.28839 13.7393Z" fill="#262626"/>
<path id="Vector_3" d="M2.28882 13.7385C2.67443 13.7813 2.97435 13.6527 3.14574 13.2242C3.27428 12.8814 3.44567 12.6243 3.87413 12.71C4.2169 13.9956 4.68819 15.1954 5.20234 16.3953C4.98811 16.4382 4.73105 16.1811 4.51682 16.3525C4.34543 16.481 3.87414 16.5668 4.25975 16.9953C4.43114 17.1667 4.21691 17.381 4.04552 17.4667C3.40283 17.2095 3.23143 16.5239 2.93151 16.0096C2.50305 15.3668 2.24597 14.5955 2.28882 13.7385Z" fill="#262626"/>
<path id="Vector_4" d="M9.48633 21.1528C10.0433 20.7243 10.4718 21.1528 10.9431 21.41C10.429 21.6671 9.95763 21.4099 9.48633 21.1528Z" fill="#262626"/>
<path id="Vector_5" d="M7.90137 20.4234C8.41552 20.3805 8.80113 20.5948 9.10105 21.0233C8.62974 20.9805 8.15844 20.9376 7.90137 20.4234Z" fill="#262626"/>
<path id="Vector_6" d="M6.61621 19.91C7.04467 19.8672 7.38744 19.9528 7.47313 20.4671C7.04467 20.4671 6.7876 20.2528 6.61621 19.91Z" fill="#262626"/>
<path id="Vector_7" d="M5.37305 19.0957C5.67297 19.0957 6.01575 19.0957 5.9729 19.5242C5.71583 19.4814 5.45874 19.4385 5.37305 19.0957Z" fill="#262626"/>
<path id="Vector_8" d="M5.97363 19.5242C6.23071 19.4813 6.35925 19.567 6.40209 19.8241C6.14502 19.9099 6.01648 19.7813 5.97363 19.5242Z" fill="#262626"/>
<path id="Vector_9" d="M4.81641 18.4961C5.07348 18.5389 5.15917 18.6675 5.15917 18.9246C4.94494 18.8818 4.81641 18.7104 4.81641 18.4961Z" fill="#262626"/>
<path id="Vector_10" d="M4.30253 9.41211C4.30253 9.71208 4.34537 10.012 4.13114 10.2263C3.61699 9.88345 3.617 9.75493 4.30253 9.41211Z" fill="#262626"/>
<path id="Vector_11" d="M3.95903 10.8691C4.13042 11.212 3.91619 11.5548 3.8305 11.8976C3.35919 11.5119 3.7448 11.212 3.95903 10.8691Z" fill="#262626"/>
<path id="Vector_12" d="M10.9432 16.0546C11.5431 15.6689 11.3717 15.1547 11.5002 14.769C11.6288 14.4261 11.6716 14.0404 12.1001 14.0404C12.5714 14.0404 13.0427 14.0833 13.4283 14.4261C13.514 14.5118 13.5568 14.6833 13.5568 14.8118C13.3426 15.7974 13.1284 16.8259 12.4857 17.6401C12.1429 18.0686 11.8002 18.24 11.1575 18.1543C9.615 17.8544 9.35792 17.6401 9.14369 16.0974C9.10085 15.5832 8.88662 15.1118 8.92946 14.5975C8.97231 14.0833 9.18653 13.869 9.70069 13.8262C10.0435 13.8262 10.2577 13.9119 10.3434 14.2975C10.4719 14.8118 10.729 15.3689 10.9432 16.0546Z" fill="#262626"/>
<path id="Vector_13" d="M16.0416 12.6245C15.2275 12.6245 14.8848 12.2388 14.8848 11.3817C14.8848 10.6532 15.4846 10.2676 16.6414 10.2676C17.327 10.2676 17.7983 10.7389 17.7555 11.4246C17.6698 12.1531 17.0271 12.6674 16.0416 12.6245Z" fill="#262626"/>
<path id="Vector_14" d="M6.70139 9.75433C7.30124 9.66863 7.81539 9.88291 8.201 10.5257C8.45808 10.9542 8.2867 11.2542 8.07247 11.5542C7.85824 11.897 6.48717 12.1541 6.1444 11.9827C5.71594 11.8113 5.45886 11.1685 5.50171 10.4829C5.63025 9.84007 5.75878 9.75433 6.70139 9.75433Z" fill="#262626"/>
</g>
</g>
</svg>
