<svg width="24" height="25" viewBox="0 0 24 25" fill="none" xmlns="http://www.w3.org/2000/svg">
<g id="Icon/Arrow Up">
<path id="Vector 719" d="M7.29395 18.2575C8.89223 16.4994 10.8194 15.0687 12.4771 13.3623C14.2057 11.5829 15.8844 9.76486 17.6386 8.01066C17.6634 7.98582 17.8258 7.82339 17.7961 7.8531C17.5268 8.12242 17.2949 8.44683 17.0409 8.72783C15.3086 10.6446 13.4265 12.3382 11.4068 13.9436C10.3931 14.7493 9.43625 15.5747 8.47836 16.4428C8.40072 16.5132 7.61727 17.3813 7.88072 16.9861" stroke="#262626" stroke-width="2" stroke-linecap="round"/>
<path id="Vector 720" d="M7 7.5C8.02181 9.43009 10.6662 9.94079 12.5961 10.3361C13.0801 10.4352 13.6219 10.5204 14.1174 10.5317C14.2147 10.5339 14.6393 10.6266 14.3781 10.5317C12.9271 10.004 11.464 9.51837 10.0371 8.91804C9.36481 8.63518 8.7014 8.33007 8.03229 8.04331C7.9648 8.01439 8.29174 8.33593 8.36914 8.38016C9.56248 9.06207 10.6787 9.26617 12.031 9.50481C13.3508 9.73772 14.5194 9.51386 15.8233 9.45591C16.1027 9.4435 16.5547 9.31886 16.6818 9.06473" stroke="#262626" stroke-width="2" stroke-linecap="round"/>
<path id="Vector 721" d="M17.5623 8.67383C17.3163 9.41189 16.7154 10.0229 16.4865 10.7927C16.1128 12.0499 15.8644 13.3284 16.0465 14.6394C16.1445 15.3455 16.351 15.7616 16.6278 16.3943C16.7716 16.723 16.7924 16.8484 16.7799 16.3997C16.7613 15.7283 16.2631 15.1771 16.0954 14.5416C15.8598 13.6488 15.6862 12.721 15.8563 11.7979C15.9949 11.0457 16.2729 10.0719 16.8288 9.51596C16.9002 9.44455 17.5957 8.72523 17.4428 9.06501C16.7933 10.5084 16.5567 12.3367 16.731 13.9059C16.8579 15.0477 16.8102 17.081 17.7796 17.9427C17.8322 17.9895 17.6039 17.2612 17.5623 17.1603C17.1835 16.2434 16.8756 15.364 16.6387 14.3949C16.2858 12.9515 16.3664 11.3441 17.2689 10.1408" stroke="#262626" stroke-width="2" stroke-linecap="round"/>
</g>
</svg>
