<svg width="82" height="114" viewBox="0 0 82 114" fill="none" xmlns="http://www.w3.org/2000/svg">
<path d="M38.2275 58.3235C37.4475 58.085 36.694 57.7599 36.0007 57.5479C33.8074 56.9721 32.5052 55.3418 31.5691 53.4442C28.6932 47.3518 26.27 41.0187 24.8461 34.517C23.9127 30.4403 23.4657 26.3226 23.8181 22.0702C24.1439 17.9045 25.4232 14.0303 28.1493 10.6932C30.2637 8.11695 32.9218 7.79219 35.6372 9.75979C37.2717 10.923 38.9328 11.9996 39.9822 13.8369C40.654 13.1893 40.8926 12.4092 41.3045 11.682C43.0722 8.99977 45.3141 6.93643 48.5982 6.42391C51.1095 5.95947 53.2304 7.08181 54.9924 8.75795C56.8411 10.4606 57.4112 12.6254 57.2687 14.9514C57.1842 16.1578 57.5381 16.5504 58.7443 16.6348C63.0491 16.8135 65.1406 20.2017 65.2266 23.6402C65.2359 25.1596 65.6449 26.6117 65.4543 28.1648C64.8441 33.5705 63.3672 38.7113 60.8767 43.4474C59.2895 46.4692 56.8886 49.0527 54.3408 51.4965C52.5781 53.2324 50.9356 55.1947 48.6722 56.3984C46.0693 57.7826 43.399 58.7672 40.4136 58.6127C39.7468 58.3141 39.0462 57.8155 38.2275 58.3235Z" fill="#E56D6A"/>
<path d="M13.2419 78.3634C13.1745 77.9636 12.9941 77.6241 12.9267 77.2244C12.8666 77.1112 12.7462 76.8848 12.686 76.7716C12.5055 76.4321 12.4117 76.1191 12.6044 75.7988C13.5097 75.3173 12.7419 74.4191 13.0406 73.7521C13.4138 73.7714 13.7339 73.9641 13.8062 73.4175C13.8327 73.3308 13.7461 73.3043 13.7726 73.2176C13.3393 73.0852 13.2333 73.4319 13.0671 73.6655C12.6674 73.7328 12.3544 73.8267 11.9548 73.8941C11.9211 73.6942 11.9139 73.4077 11.9669 73.2343C12.4124 72.707 13.2913 72.3122 12.6968 71.467C12.3695 70.9877 11.5293 70.6361 12.9088 70.7735C13.4553 70.8458 13.3543 70.2462 13.234 70.0198C12.8178 68.2812 12.315 66.5162 11.8988 64.7776C11.9253 64.6909 11.8386 64.6644 11.7519 64.6379C11.9038 63.8313 12.4625 63.2438 12.9346 62.6298C15.5138 59.1531 19.674 60.425 21.2648 63.281C22.8557 66.137 23.5075 69.2746 24.3591 72.3785C24.862 74.1436 25.1385 76.029 25.5281 77.8543C24.5404 80.775 24.675 81.5745 26.8704 83.3831C26.9377 83.7828 26.9786 84.2692 27.1326 84.6955C26.9808 85.5021 26.8024 86.3954 27.9026 86.8266C27.2788 88.2472 26.3347 89.4751 27.5503 91.079C27.8776 91.5582 28.3446 91.8905 28.6984 92.2831C29.1124 92.7888 29.4205 93.6412 29.0014 94.0819C28.4427 94.6693 28.0216 93.8771 27.6678 93.4845C27.4608 93.2317 27.2272 93.0655 26.9744 93.2725C26.695 93.5663 26.7889 93.8793 26.9694 94.2189C27.6842 95.2905 28.8374 95.5482 29.9376 95.9794C31.6781 96.7959 32.7569 96.3674 33.9008 95.1058C35.7115 94.1428 36.8146 92.3948 38.3581 91.0658C40.5205 89.2625 42.7359 87.2858 45.0451 85.6222C46.8752 84.286 48.8522 83.0895 51.0432 82.4324C53.1476 81.7488 55.2664 81.6382 57.3464 82.2742C59.8598 83.0426 59.9701 85.1616 59.6543 87.4347C59.2732 90.5409 57.2312 92.5705 54.8954 94.3208C53.4049 95.4765 52.0611 96.7718 50.39 97.5879C48.1531 98.7049 46.0366 100.048 43.8863 101.192C42.6415 101.854 41.2498 102.376 40.0049 103.038C37.9943 104.035 35.9236 104.918 33.6916 105.089C32.0328 105.245 30.6553 106.341 29.0638 106.897C28.5438 106.738 28.3898 106.312 28.3225 105.912C27.8461 104.06 26.8304 102.423 25.7617 100.959C22.9432 97.1585 20.6905 93.0575 18.4378 88.9565C16.5196 85.6213 15.0276 82.132 13.5356 78.6427C13.3622 78.5897 13.302 78.4765 13.2419 78.3634ZM19.3509 73.8805C19.1582 74.2007 18.6454 74.3283 18.9126 74.6943C19.1196 74.9472 19.4856 74.6799 19.6253 74.5331C20.1044 74.2056 19.7843 74.013 19.3509 73.8805C19.6568 73.5 19.1225 72.768 20.0085 72.6597C20.868 72.6382 20.9404 72.0916 20.7527 71.4655C20.5651 70.8394 20.6037 70.0929 20.1896 69.5872C19.275 68.5493 18.9863 67.3236 18.7242 66.0112C18.2113 66.1388 18.2184 66.4254 18.2256 66.7119C18.1074 67.7184 16.9492 68.4069 17.3776 69.4857C17.6591 70.4249 18.7399 71.2292 17.9091 72.397C17.8826 72.4837 18.2365 72.8762 18.3833 73.0159C18.6505 73.382 19.0572 73.6011 19.3509 73.8805ZM20.8702 73.871C20.7184 74.6777 19.6396 75.1062 20.0414 76.2716C20.5901 77.5768 20.939 78.9157 22.4797 79.7659C22.509 77.5 21.4332 75.7493 20.8702 73.871ZM14.4953 71.1638C15.1263 70.0297 15.2109 68.8233 14.5154 67.3785C14.0648 68.8521 13.7203 69.979 14.4953 71.1638ZM17.6606 75.0698C17.7401 74.8098 17.7064 74.6099 17.4464 74.5304C16.9866 74.4846 16.5869 74.552 16.4279 75.0721C16.3484 75.3321 16.382 75.532 16.642 75.6115C17.1621 75.7705 17.3813 75.3636 17.6606 75.0698ZM29.4942 97.7395C29.6074 97.6794 29.747 97.5325 29.6869 97.4193C29.7134 97.3326 29.5401 97.2797 29.3933 97.14C29.2801 97.2002 29.1403 97.347 29.2005 97.4602C29.2607 97.5734 29.434 97.6264 29.4942 97.7395ZM23.4395 83.7559C23.3793 83.6427 23.4323 83.4694 23.3457 83.4429C23.259 83.4164 23.0591 83.4501 23.0326 83.5367C22.8929 83.6836 22.9267 83.8835 23.1867 83.963C23.2733 83.9895 23.3263 83.8161 23.4395 83.7559ZM17.9563 65.113C17.9227 64.9131 17.9491 64.8265 17.889 64.7133C17.7493 64.8601 17.5495 64.8939 17.4099 65.0407C17.2702 65.1876 17.2773 65.4741 17.5638 65.4669C17.677 65.4067 17.8432 65.1732 17.9563 65.113ZM23.1028 81.7573C22.9896 81.8175 22.8765 81.8777 22.85 81.9643C22.8235 82.051 22.8836 82.1642 22.9173 82.3641C23.0305 82.3039 23.1437 82.2437 23.1702 82.157C23.2232 81.9837 23.163 81.8705 23.1028 81.7573Z" fill="#81B769"/>
<path d="M33.7877 95.1644C32.6439 96.426 31.5651 96.8545 29.8246 96.038C28.7509 95.5202 27.5711 95.349 26.8563 94.2774C26.5891 93.9114 26.4953 93.5984 26.8614 93.3311C27.1407 93.0374 27.4343 93.3167 27.5546 93.5431C27.9085 93.9356 28.3297 94.7279 28.8884 94.1404C29.3075 93.6998 28.9994 92.8474 28.5854 92.3416C28.2581 91.8624 27.7646 91.6168 27.4373 91.1376C26.2217 89.5337 27.1923 88.2191 27.7896 86.8852C28.9135 89.4088 29.1849 92.2406 30.2558 94.9376C30.7593 93.2906 31.3832 91.87 31.6604 90.3434C32.3666 86.4835 33.5061 82.7562 34.299 78.9228C34.8076 76.3295 35.4293 73.6761 35.9379 71.0828C36.7179 71.3213 37.4978 71.5597 38.4512 71.8512C37.7965 70.8927 36.9828 70.4544 36.0896 70.2761C35.9621 69.7632 35.8949 69.3635 36.2272 68.8964C36.5739 69.0024 37.2071 69.1012 37.1734 68.9013C36.9642 67.4156 38.1898 67.1268 39.1553 66.7585C38.3997 65.2005 37.5759 66.6547 36.7959 66.4162C36.9842 63.6303 37.6324 60.8901 38.3408 58.2631C39.133 57.8418 39.86 58.2537 40.5269 58.5523C40.2519 61.3118 40.037 64.1845 39.762 66.944C39.4411 70.1633 38.8602 73.3032 38.2528 76.5298C37.2501 82.2895 35.554 87.8372 34.3779 93.5439C34.1924 94.1507 33.9468 94.6443 33.7877 95.1644ZM38.3817 70.2186C38.5551 70.2716 38.5815 70.1849 38.5479 69.985C38.5479 69.985 38.4612 69.9586 38.3746 69.9321C38.4082 70.1319 38.3817 70.2186 38.3817 70.2186Z" fill="#81B769"/>
<path d="M11.7248 64.7218C11.8115 64.7483 11.8717 64.8615 11.8717 64.8615C12.2879 66.6001 12.7907 68.3652 13.2068 70.1038C13.3007 70.4168 13.4282 70.9297 12.8817 70.8574C11.5021 70.72 12.2556 71.0452 12.6697 71.5509C13.2642 72.3962 12.3852 72.7909 11.9397 73.3182C10.2622 70.4357 9.90403 67.5775 11.7248 64.7218Z" fill="#81B769"/>
<path d="M26.7567 83.442C24.648 81.6599 24.4267 80.834 25.4144 77.9132C26.1772 79.7578 26.7667 81.5494 26.7567 83.442Z" fill="#81B769"/>
<path d="M36.7698 66.5035C37.5233 66.8286 38.3471 65.3744 39.1293 66.8457C38.1638 67.214 36.9647 67.4161 37.1474 68.9885C37.1545 69.2751 36.5478 69.0896 36.2012 68.9836C36.1797 68.124 36.358 67.2306 36.7698 66.5035Z" fill="#81B769"/>
<path d="M35.9761 70.337C36.8693 70.5153 37.683 70.9537 38.3377 71.9121C37.3843 71.6206 36.6043 71.3821 35.8243 71.1437C35.9038 70.8836 35.9833 70.6235 35.9761 70.337Z" fill="#81B769"/>
<path d="M13.0403 73.7504C12.7416 74.4174 13.4227 75.2892 12.604 75.7972C11.9902 75.3251 11.9157 74.6389 11.9544 73.8924C12.3276 73.9117 12.7272 73.8443 13.0403 73.7504Z" fill="#81B769"/>
<path d="M27.7895 86.885C26.6893 86.4539 26.8412 85.6472 27.0195 84.7539C27.6935 85.3391 27.6549 86.0856 27.7895 86.885Z" fill="#81B769"/>
<path d="M13.2412 78.3613C13.3014 78.4745 13.3616 78.5877 13.4218 78.7009C13.2484 78.6479 13.1882 78.5347 13.2412 78.3613Z" fill="#81B769"/>
<path d="M12.6865 76.7695C12.7467 76.8827 12.867 77.1091 12.9272 77.2223C12.6672 77.1428 12.607 77.0296 12.6865 76.7695Z" fill="#81B769"/>
<path d="M19.3504 73.8791C19.0568 73.5998 18.65 73.3806 18.3563 73.1013C18.1228 72.9351 17.7689 72.5425 17.8821 72.4823C18.7129 71.3146 17.7187 70.5367 17.3506 69.5711C16.9487 68.4056 18.107 67.717 18.1986 66.7972C18.1915 66.5107 18.1843 66.2241 18.6972 66.0966C18.9594 67.4089 19.248 68.6346 20.1627 69.6726C20.5165 70.0651 20.5646 70.8381 20.7257 71.5508C20.9134 72.1769 20.841 72.7235 19.9815 72.7451C19.122 72.7666 19.6563 73.4987 19.3504 73.8791Z" fill="#81B769"/>
<path d="M20.8702 73.8698C21.4332 75.7481 22.509 77.4988 22.5663 79.7911C21.0256 78.9409 20.5901 77.5756 20.1281 76.2969C19.6396 75.1049 20.7184 74.6764 20.8702 73.8698Z" fill="#81B769"/>
<path d="M14.4955 71.1623C13.747 69.8908 14.1783 68.7904 14.5156 67.377C15.2111 68.8219 15.0399 70.0017 14.4955 71.1623Z" fill="#81B769"/>
<path d="M17.6602 75.0689C17.4411 75.4758 17.1617 75.7696 16.6417 75.6106C16.3817 75.5311 16.348 75.3312 16.4275 75.0712C16.5865 74.5511 16.9862 74.4837 17.4461 74.5295C17.6194 74.5825 17.7398 74.8089 17.6602 75.0689Z" fill="#81B769"/>
<path d="M19.4384 73.9059C19.7586 74.0985 20.1919 74.231 19.6863 74.6451C19.4599 74.7655 19.0938 75.0327 18.9735 74.8064C18.6462 74.3271 19.2458 74.2261 19.4384 73.9059Z" fill="#81B769"/>
<path d="M29.4943 97.7374C29.4342 97.6242 29.2608 97.5712 29.2006 97.4581C29.2271 97.3714 29.3669 97.2245 29.3934 97.1379C29.4536 97.251 29.6268 97.304 29.687 97.4172C29.7472 97.5303 29.634 97.5905 29.4943 97.7374Z" fill="#81B769"/>
<path d="M23.4388 83.7532C23.3256 83.8134 23.186 83.9602 23.0994 83.9337C22.8394 83.8542 22.8056 83.6544 22.9453 83.5075C22.9718 83.4208 23.1717 83.3872 23.2584 83.4137C23.4317 83.4667 23.3786 83.64 23.4388 83.7532Z" fill="#81B769"/>
<path d="M13.0408 73.7511C13.2335 73.4309 13.3395 73.0841 13.7463 73.3033C13.833 73.3298 13.8065 73.4165 13.78 73.5032C13.7342 73.9631 13.3875 73.8571 13.0408 73.7511Z" fill="#81B769"/>
<path d="M17.9561 65.1119C17.843 65.1721 17.6767 65.4057 17.5901 65.3792C17.3036 65.3863 17.2965 65.0998 17.4361 64.953C17.5758 64.8061 17.7756 64.7724 17.9152 64.6255C17.9489 64.8254 17.9225 64.9121 17.9561 65.1119Z" fill="#81B769"/>
<path d="M23.103 81.7561C23.1632 81.8693 23.2234 81.9825 23.1704 82.1558C23.1439 82.2425 23.0306 82.3027 22.9175 82.3629C22.8573 82.2497 22.7972 82.1365 22.8502 81.9632C22.8767 81.8765 23.0765 81.8428 23.103 81.7561Z" fill="#81B769"/>
<path d="M38.3812 70.2188C38.4077 70.1322 38.4078 70.1322 38.3476 70.019C38.4343 70.0455 38.5474 69.9853 38.5209 70.072C38.6412 70.2983 38.5281 70.3585 38.3812 70.2188Z" fill="#81B769"/>
</svg>
