<svg width="149" height="141" viewBox="0 0 149 141" fill="none" xmlns="http://www.w3.org/2000/svg">
<g id="Group">
<path id="Vector" d="M34.2258 76.0839C30.1472 74.1517 26.2832 75.0105 22.634 73.7223C12.3302 70.2872 4.17319 64.2757 0.738607 53.3262C-0.334702 49.8911 -0.334859 46.2412 1.38243 42.8061C2.88507 39.8004 3.31449 36.58 5.24645 33.5742C11.0423 25.4158 21.9901 20.6925 32.0792 22.6248C37.4457 23.6983 42.3828 24.9865 46.4614 28.4216C48.3933 29.9245 49.6813 29.4951 49.6813 26.9187C49.6813 21.5513 51.3986 17.0427 53.9745 12.5341C56.9798 7.38137 61.0585 3.51682 66.2104 1.36987C70.933 -0.562394 76.0849 -0.347699 81.0221 1.36987C85.1007 2.87274 88.1057 5.66381 90.467 9.31363C92.1843 11.89 94.975 14.0369 96.4777 16.828C99.4829 21.9807 100.986 27.5627 100.556 33.5742C100.556 34.433 100.342 35.2918 100.985 36.3652C104.42 36.3652 107.855 34.4331 110.86 33.3596C119.661 29.9244 127.603 32.5007 135.546 35.7212C138.122 36.7947 140.698 38.5122 142.63 40.6591C150.572 48.8176 150.572 56.5467 145.421 65.7786C140.913 74.1517 133.185 77.3722 125.028 80.1632C121.593 81.2367 118.373 82.7396 115.153 83.8131C114.724 86.1747 116.656 86.6041 117.729 87.4629C124.813 93.2597 129.536 100.559 132.97 108.932C135.546 114.944 134.902 120.955 132.111 126.752C130.394 129.973 127.389 132.12 124.813 133.837C118.802 138.131 112.363 141.566 104.42 140.922C100.985 140.493 97.9803 139.634 95.4044 137.702C87.4619 132.12 80.8073 125.464 77.3727 115.588C75.8701 117.091 74.5821 118.379 73.2941 119.882C65.7809 128.255 55.9066 131.261 45.1735 132.764C42.5975 133.193 39.8071 132.978 37.0165 132.978C32.5086 132.978 28.8592 131.475 25.8539 128.47C22.4193 125.249 20.4875 120.955 20.0582 116.232C18.7702 104.209 21.1315 93.0449 28.6446 82.9542C31.0059 80.5926 32.7231 78.6603 34.2258 76.0839ZM30.1472 107.859C29.5032 113.012 31.0057 117.735 34.655 121.814C35.943 123.317 37.2311 124.176 39.3777 124.39C45.8176 125.249 52.0426 123.961 58.0532 122.029C62.1317 120.526 65.9956 117.735 67.9276 113.656C70.0742 109.576 72.6503 105.497 72.6503 100.345C72.6503 97.3389 76.2994 94.7625 79.5193 94.7625C82.7393 94.7625 83.1686 97.5535 83.598 99.7005C84.6713 104.853 86.6031 109.577 88.3204 114.3C90.6817 120.741 95.8336 125.035 101.2 129.114C106.996 133.837 117.729 132.549 122.237 126.537C126.316 121.17 125.886 115.373 123.31 109.577C121.593 105.712 119.232 102.277 116.656 99.2712C112.792 94.7626 108.713 90.4686 103.347 87.6776C100.556 86.1747 100.127 82.3102 102.918 80.5926C104.849 79.3044 106.996 78.2309 109.357 77.5868C114.939 76.2987 120.52 74.7958 125.672 72.0048C131.682 68.7844 136.619 64.4904 138.766 57.6202C139.839 54.185 139.625 50.9646 137.263 48.3883C134.258 45.1678 131.253 41.7327 126.745 40.4445C122.666 39.1563 118.373 37.224 114.295 39.5857C109.572 42.3767 104.635 45.3825 100.556 49.247C97.7657 51.8233 95.4044 52.2528 91.9698 52.0381C89.1792 51.8234 88.5353 50.5352 88.5353 47.9589C88.5353 44.309 89.3938 40.8739 90.0378 37.2241C90.8965 32.5008 91.1111 27.5628 88.9645 23.0542C86.1739 17.2574 82.0954 12.7488 76.9435 8.66957C74.7969 7.1667 72.6502 6.73734 70.7183 8.02551C66.2104 10.8166 62.3466 14.0369 60.6293 19.1896C58.912 24.3423 58.268 29.4951 58.4827 34.8625C58.4827 36.58 58.6972 38.0828 59.9852 39.5857C61.7025 41.3032 62.1318 43.4503 60.8439 45.5973C59.9852 47.1001 60.4144 49.0323 60.1998 50.7499C60.1998 51.8233 60.6292 53.3262 58.9119 53.5409C57.6239 53.7556 56.5506 53.3262 55.6919 52.4674C54.8333 51.6086 54.4039 50.5351 53.9745 49.247C53.5452 48.1735 53.1161 46.8853 52.2574 46.0265C45.8176 38.5122 37.6604 33.3595 28.8592 29.2803C28.2152 29.0656 27.5712 29.0657 26.9272 29.0657C17.2675 30.1391 9.96895 38.0828 9.75429 47.1C9.53963 51.8233 10.6129 55.4733 15.1208 58.479C18.9847 61.27 22.6341 64.9198 27.3567 65.7786C34.0112 67.0667 40.8802 67.9255 47.5347 66.4226C49.252 65.9932 51.1839 65.5639 51.8279 67.7109C52.4719 69.6431 52.472 71.7901 50.3254 73.0783C48.8228 73.9371 47.5348 75.0105 46.0322 75.8693C42.5976 78.2309 39.3776 80.3779 37.6603 84.4571C36.8017 86.3894 35.7283 88.1069 34.655 89.8245C32.5084 95.836 29.5032 101.203 30.1472 107.859Z" fill="white"/>
<path id="Vector_2" d="M30.147 107.859C29.2883 101.203 32.2936 95.8359 35.2989 90.6832C36.3722 88.9657 37.4456 87.2481 38.3042 85.3158C40.0215 81.2366 43.2415 79.0897 46.6761 76.728C48.1787 75.8692 49.4667 74.7956 50.9693 73.9369C53.1159 72.6487 53.1158 70.5017 52.4718 68.5695C51.6132 66.4225 49.8959 66.852 48.1786 67.2813C41.3094 68.5695 34.4402 67.9255 28.0003 66.6373C23.4925 65.7785 19.8433 62.1286 15.7647 59.3376C11.4715 56.3318 10.3982 52.682 10.3982 47.9587C10.6129 38.9415 17.9114 30.9977 27.5711 29.9242C28.2151 29.9242 29.0738 29.7096 29.5031 30.139C38.3043 34.2182 46.4612 39.3709 52.901 46.8853C53.7597 47.744 54.1891 49.0322 54.6184 50.1057C55.0478 51.1792 55.4772 52.2527 56.3358 53.3261C57.1945 54.3996 58.2678 54.829 59.5558 54.3996C61.2731 53.9702 60.8437 52.6821 60.8437 51.6086C60.8437 49.891 60.4142 48.1734 61.4875 46.4558C62.7755 44.0942 62.3464 42.162 60.6291 40.4444C59.1264 39.1562 59.1263 37.4386 59.1263 35.7211C58.9116 30.3537 59.7703 25.201 61.2729 20.0483C62.9902 14.8956 67.0689 11.6751 71.3622 8.8841C73.2941 7.59592 75.4405 8.02529 77.5871 9.52816C82.5244 13.3927 86.8178 18.116 89.6084 23.9128C91.755 28.4214 91.755 33.1448 90.6817 38.0828C90.0377 41.5179 89.1789 45.1677 89.1789 48.8176C89.1789 51.1792 89.8229 52.682 92.6135 52.8967C96.048 53.1114 98.4093 52.682 101.2 50.1057C105.278 46.2412 110.001 43.2354 114.938 40.4444C119.017 38.0827 123.31 39.8004 127.389 41.3032C131.682 42.8061 134.902 46.0264 137.907 49.2469C140.269 51.8232 140.483 55.0437 139.41 58.4789C137.049 65.1344 132.326 69.643 126.315 72.8634C121.164 75.6544 115.582 77.1574 110.001 78.4456C107.64 79.0896 105.493 80.163 103.561 81.4512C100.985 83.1688 101.2 87.2481 103.991 88.5363C109.357 91.3273 113.436 95.6212 117.3 100.13C119.875 103.136 122.237 106.785 123.954 110.435C126.53 116.232 126.96 121.814 122.881 127.396C118.373 133.408 107.855 134.696 101.844 129.973C96.6921 125.893 91.3256 121.599 88.9643 115.158C87.247 110.435 85.3152 105.712 84.2419 100.559C83.8125 98.1975 83.5978 95.6212 80.1632 95.6212C76.9433 95.6212 73.2939 98.1975 73.2939 101.203C73.2939 106.356 70.7181 110.435 68.5715 114.514C66.6395 118.379 62.561 121.385 58.6971 122.888C52.6865 125.035 46.4612 126.108 40.0213 125.249C37.8747 125.034 36.5869 124.176 35.2989 122.673C31.2203 117.735 29.503 113.012 30.147 107.859Z" fill="white"/>
<path id="Vector_3" d="M77.9657 57C86.1808 57 94.396 63.7879 93.9852 70.1515C93.9852 76.5152 85.3593 84.5758 78.7873 85C71.3937 85 64.4108 78.2121 64 70.5757C64 62.5151 69.7507 57 77.9657 57Z" fill="#FAC95D"/>
</g>
</svg>
