<svg width="132" height="138" viewBox="0 0 132 138" fill="none" xmlns="http://www.w3.org/2000/svg">
<path d="M84.0909 73.9107C82.0541 77.9637 81.3133 82.46 80.3982 86.8479C79.1812 92.4989 77.1583 97.8905 75.3098 103.39C74.0885 107.104 73.3573 111.002 71.9616 114.607C70.5988 118.354 70.0419 122.36 68.189 125.923C66.8784 128.614 63.0939 129.645 60.2948 128.509C54.9464 126.028 50.3144 122.784 45.7579 119.224C40.7869 115.165 36.2825 110.549 31.8865 105.759C25.1677 98.6776 19.7308 90.7011 14.7935 82.31C12.5982 78.6471 11.534 74.7205 10.8609 70.5537C10.1878 66.3869 11.4421 62.8145 14.407 60.1853C17.4802 57.3817 21.0669 55.502 25.6052 55.786C32.8532 56.1839 38.3994 59.5131 43.6438 64.1053C43.8181 64.2138 43.9925 64.3222 44.5485 64.789C45.7039 60.7924 45.7706 56.6022 48.0476 52.9406C50.2162 49.4533 52.7664 46.3243 56.2872 44.1618C59.1575 43.0455 61.8205 41.6793 65.3031 41.9112C67.8715 42.058 70.0157 42.3038 72.0324 43.921C72.5884 44.3878 73.3941 44.6472 74.0915 45.081C75.6277 45.9157 77.0556 46.9248 77.9837 48.3485C80.4289 51.804 82.0916 55.7401 83.1229 59.5252C84.4934 64.1259 84.5914 69.0231 84.0909 73.9107Z" fill="#FAA57B"/>
<path d="M84.0905 73.9106C84.591 69.023 84.3516 64.1587 83.2639 59.4922C82.1996 55.5657 80.5369 51.6296 78.1247 48.3154C77.0552 46.9247 75.7688 45.8826 74.2327 45.0479C73.5353 44.6141 72.7293 44.3547 72.1733 43.888C70.1566 42.2707 68.0125 42.025 65.4441 41.8782C61.9614 41.6463 59.2985 43.0124 56.4282 44.1287C55.1046 41.0081 53.4652 37.812 52.4244 34.6255C50.6488 28.9265 50.1032 23.3882 51.9942 17.431C53.9936 11.2995 62.4396 7.24354 68.7109 13.6837C71.4484 16.4748 74.3274 19.2329 77.1733 21.8496C77.7293 22.3164 78.2098 23.0989 79.1241 23.184C79.7981 22.8778 79.982 22.3877 80.1659 21.8975C81.4627 17.868 84.2956 14.6731 86.1484 11.1102C86.3653 10.7615 86.4407 10.4457 86.6905 10.2384C90.3528 8.04299 93.7514 4.71626 98.3651 4.68452C101.782 4.63361 104.213 6.75059 106.003 9.31515C108.241 12.5208 109.447 16.4144 109.14 20.2133C108.417 27.9855 107.728 35.899 105.634 43.5436C104.285 48.6289 102.827 53.8886 101.936 59.0165C101.204 62.9143 100.332 66.845 99.9493 70.9597C99.7272 73.8442 96.9323 74.6447 95.5653 76.4543C95.3155 76.6616 94.5097 76.4021 93.8782 76.2511C93.0394 75.8502 92.1677 75.308 91.3619 75.0485C89.6088 74.5626 87.9079 73.0208 85.8764 74.538C85.5607 74.4625 84.7219 74.0616 84.0905 73.9106Z" fill="#FAC95D"/>
</svg>
