<svg width="80" height="105" viewBox="0 0 80 105" fill="none" xmlns="http://www.w3.org/2000/svg">
<path d="M46.3796 18.1826C45.1142 24.9322 48.6994 33.1583 49.543 41.5953C49.7538 43.2828 50.8084 44.1265 52.4955 44.5484C59.2441 46.4467 65.9926 48.556 72.7411 50.2434C74.8501 50.8762 76.3263 51.9307 78.0135 53.1963C80.7551 55.0946 80.1224 58.2586 76.959 59.3132C73.1629 60.5787 69.156 61.6334 65.3599 62.4771C63.251 62.8989 61.142 63.3208 59.244 64.5863C58.4004 65.2191 57.3461 65.4301 56.2917 65.4301C50.8085 66.2738 50.5974 66.2737 49.7538 71.5469C48.4884 79.5621 47.434 87.7883 46.5904 96.0144C46.3795 98.7564 44.9034 100.866 43.849 102.975C42.3727 105.717 35.4132 104.241 34.5696 101.288C32.0389 91.1631 26.7666 82.0933 24.8686 71.7579C24.4468 69.8596 23.3924 69.2267 21.7052 68.383C17.9091 66.4846 13.6913 65.8518 10.1061 63.7426C7.99719 62.477 6.09916 61.4225 3.77934 60.7897C0.405052 59.946 -0.438673 58.0476 0.194005 54.2509C0.615791 51.2979 1.67036 50.2433 5.04464 50.4543C8.41892 50.6652 11.7931 50.2433 14.9565 49.3996C17.4872 48.7669 19.3854 47.5013 20.4399 44.7592C24.6578 34.8457 28.4537 24.7213 31.6171 14.5968C32.8824 10.5892 35.2024 7.00349 36.4677 2.99589C37.1004 0.675702 42.5837 -0.800807 44.6926 0.46475C45.3253 0.886602 45.3251 1.51948 45.5359 2.15226C47.2231 6.79264 46.3796 11.6439 46.3796 18.1826Z" fill="#FAC95D"/>
</svg>
