<svg width="65" height="111" viewBox="0 0 65 111" fill="none" xmlns="http://www.w3.org/2000/svg">
<path d="M19.0605 64.4064C19.4823 66.5156 18.217 67.992 17.1625 69.4685C14.6318 72.8433 13.7882 77.0619 11.0466 80.2258C12.5229 81.4914 13.9991 81.0695 15.2645 80.8586C23.7002 79.8039 31.925 78.5384 39.0953 73.4762C43.1023 70.7341 46.6875 67.3593 47.9528 62.2971C48.7964 58.7114 48.7964 58.2894 45.2112 58.5003C40.3607 58.7113 35.7211 57.8675 30.8706 56.3911C26.02 54.9146 23.7002 51.118 20.9586 47.5323C19.9041 46.2667 20.3259 44.3683 20.5368 42.6809C22.4348 34.0329 32.1358 28.7598 40.7824 31.9237C44.7894 33.4002 49.2182 34.6657 51.1162 39.3061C51.538 40.1498 52.1707 40.5717 53.2251 40.3607C54.0687 40.1498 54.2796 39.0952 54.4904 38.2515C54.9122 32.7674 54.7014 27.4942 52.8033 22.432C50.9053 17.3698 49.0073 12.5184 46.4766 7.87805C46.0548 7.03435 45.633 6.40164 45.0003 5.97979C43.1022 4.92516 43.1023 3.02675 44.1568 1.55027C45.2112 0.0737838 46.8984 -0.348017 48.7964 0.284761C51.5381 1.33939 54.0687 2.81593 55.5449 5.34704C61.0281 15.0496 65.457 24.9631 64.6134 36.5641C64.1916 41.4154 62.7153 45.8448 59.7628 49.4305C58.2865 51.1179 57.6539 52.5945 58.2866 54.9147C60.3955 63.7736 54.0687 74.5307 47.1092 78.5383C45.4221 79.5929 43.7349 80.8585 42.2587 82.1241C38.2517 85.077 33.4013 86.3426 28.7616 87.3972C23.7002 88.4519 18.4278 89.2956 12.3119 88.4519C13.999 90.3502 15.0536 91.8268 16.3189 92.8814C20.7477 96.4671 23.4893 101.318 26.8636 105.537C28.9725 108.279 27.9181 110.388 24.5438 110.81C21.8022 111.232 19.0606 111.232 17.1625 108.068C14.6318 103.849 11.4684 99.8418 8.93767 95.4124C7.46142 92.6704 4.71982 90.772 2.61089 88.4519C-0.552498 84.8661 -0.763391 84.8661 1.55643 80.6476C3.45446 77.0618 4.29803 73.0543 5.77428 69.2576C7.03964 65.6719 8.72683 62.508 11.8902 60.1878C14.8427 60.8206 17.3734 61.8752 19.0605 64.4064ZM38.2518 51.5398C41.2043 51.5398 43.7349 51.118 45.0003 49.2197C46.4765 46.8995 44.3676 44.7901 43.3132 42.6809C43.1023 42.0481 42.4696 41.6263 41.8369 41.2045C38.6735 38.4624 34.6666 38.4624 31.7141 41.2045C29.3942 43.3137 29.3943 46.4776 31.925 48.5869C33.8231 50.4852 35.932 51.7507 38.2518 51.5398Z" fill="#FAC95D"/>
</svg>
